<svg width="88" height="24" viewBox="0 0 88 24" fill="none" xmlns="http://www.w3.org/2000/svg">
<path d="M29.312 0.0959702H33.6L25.28 22.88H23.232L16.8 7.13597L10.432 22.88H8.41603L2.68668e-05 0.0959702H4.35203L9.69603 15.52L15.808 -3.05176e-05H17.888L23.968 15.584L29.312 0.0959702ZM36.6713 23.072C34.0899 23.072 32.0206 22.2506 30.4633 20.608C28.9273 18.9653 28.1593 16.7573 28.1593 13.984C28.1593 11.2106 28.9273 9.0133 30.4633 7.39197C31.9993 5.7493 34.0153 4.92797 36.5113 4.92797C38.9006 4.92797 40.7673 5.61064 42.1113 6.97597V5.31197H45.8873V22.72H42.1753V20.896C40.9379 22.3466 39.1033 23.072 36.6713 23.072ZM37.4073 19.712C38.3886 19.712 39.3059 19.4986 40.1593 19.072C41.0126 18.6453 41.6846 18.0053 42.1753 17.152V10.784C41.6633 9.99464 40.9593 9.38664 40.0633 8.95997C39.1673 8.51197 38.2393 8.28797 37.2793 8.28797C35.7219 8.28797 34.4633 8.7893 33.5033 9.79197C32.5646 10.7946 32.0953 12.1813 32.0953 13.952C32.0953 15.744 32.5753 17.152 33.5353 18.176C34.4953 19.2 35.7859 19.712 37.4073 19.712ZM57.701 5.31197H61.861L53.637 22.88H51.429L43.205 5.31197H47.525L50.821 13.056L52.549 17.44L54.341 13.12L57.701 5.31197ZM75.4413 14.048C75.4413 14.56 75.4306 14.9226 75.4093 15.136H61.3613C61.5959 16.6293 62.2039 17.792 63.1853 18.624C64.1666 19.456 65.4359 19.872 66.9933 19.872C69.2759 19.872 71.0573 19.072 72.3373 17.472L74.8013 19.52C73.0519 21.888 70.3639 23.072 66.7373 23.072C63.8786 23.072 61.6173 22.2506 59.9533 20.608C58.3106 18.944 57.4893 16.7253 57.4893 13.952C57.4893 11.2213 58.3213 9.02397 59.9853 7.35997C61.6493 5.69597 63.8146 4.86397 66.4813 4.86397C69.3826 4.86397 71.6013 5.70664 73.1373 7.39197C74.6733 9.05597 75.4413 11.2746 75.4413 14.048ZM66.4813 8.03197C65.1799 8.03197 64.0706 8.4053 63.1533 9.15197C62.2359 9.8773 61.6493 10.9226 61.3933 12.288H71.6333C71.5053 11.0293 71.0039 10.0053 70.1293 9.21597C69.2759 8.42664 68.0599 8.03197 66.4813 8.03197ZM79.8878 23.136C77.1784 23.136 74.7358 22.6026 72.5598 21.536L73.8078 18.496C75.6211 19.5626 77.6158 20.096 79.7918 20.096C82.0531 20.096 83.1838 19.36 83.1838 17.888C83.1838 17.2693 82.8851 16.8 82.2878 16.48C81.6904 16.16 80.6238 15.8293 79.0878 15.488C76.9331 15.04 75.3438 14.4213 74.3198 13.632C73.3171 12.8213 72.8158 11.6586 72.8158 10.144C72.8158 8.45864 73.4238 7.17864 74.6398 6.30397C75.8771 5.40797 77.5411 4.95997 79.6318 4.95997C81.7864 4.95997 84.0158 5.41864 86.3198 6.33597L85.0398 9.37597C83.3331 8.5013 81.5091 8.06397 79.5678 8.06397C77.6051 8.06397 76.6238 8.67197 76.6238 9.88797C76.6238 10.528 76.9011 11.008 77.4558 11.328C78.0104 11.648 79.0771 11.9893 80.6558 12.352C82.8744 12.864 84.4958 13.504 85.5198 14.272C86.5651 15.04 87.0878 16.1386 87.0878 17.568C87.0878 19.488 86.4904 20.896 85.2958 21.792C84.1011 22.688 82.2984 23.136 79.8878 23.136Z" fill="#8447E9"/>
</svg>
