<?xml version="1.0" encoding="utf-8"?>
<svg width="960" height="50" fill="none" xmlns="http://www.w3.org/2000/svg">
  <path d="M 330.387 52.236 C 316.821 52.393 184.105 52.183 168.913 52.182 C 153.719 52.184 5.72 55.521 -17 48.16 L -11.112 29.995 C 6.324 35.627 25.345 33.436 41.044 23.987 C 44.62 21.687 47.826 19.092 51.102 16.572 C 54.379 14.052 56.99 11.975 60.117 9.823 C 68.61 3.553 78.889 0.171 89.445 0.173 C 99.998 0.172 110.274 3.554 118.764 9.823 C 121.596 11.826 124.352 13.978 127.034 16.051 C 129.716 18.128 133.592 21.165 137.168 23.466 C 146.944 29.422 158.171 32.571 169.618 32.569 C 181.067 32.572 192.295 29.422 202.072 23.466 C 205.723 21.095 209.003 18.496 212.28 16.051 C 215.557 13.605 217.199 12.194 219.731 10.341 C 228.402 3.632 239.056 -0.005 250.019 0 C 260.984 -0.004 271.639 3.635 280.311 10.345 C 282.918 12.198 285.38 14.127 287.763 15.98 C 292.139 19.46 296.716 22.678 301.472 25.617 C 317.568 34.372 336.787 35.273 353.632 28.063 C 361.087 24.268 368.15 19.749 374.719 14.57 L 380.382 10.415 C 389.106 3.727 399.793 0.102 410.786 0.104 C 421.778 0.103 432.464 3.727 441.187 10.415 L 448.638 15.828 C 452.738 19.018 456.684 21.981 460.934 24.724 C 469.844 30.265 480.271 32.861 490.739 32.144 L 491.409 51.198 C 477.052 51.977 341.367 52.198 330.387 52.236 Z" fill="#0F0F0F"/>
  <path d="M 804.827 51.652 C 791.261 51.809 658.545 51.599 643.353 51.598 C 628.159 51.6 480.16 54.937 457.44 47.576 L 463.328 29.411 C 480.764 35.043 499.785 32.852 515.484 23.403 C 519.06 21.103 522.266 18.508 525.542 15.988 C 528.819 13.468 531.43 11.391 534.557 9.239 C 543.05 2.969 553.329 -0.413 563.885 -0.411 C 574.438 -0.412 584.714 2.97 593.204 9.239 C 596.036 11.242 598.792 13.394 601.474 15.467 C 604.156 17.544 608.032 20.581 611.608 22.882 C 621.384 28.838 632.611 31.987 644.058 31.985 C 655.507 31.988 666.735 28.838 676.512 22.882 C 680.163 20.511 683.443 17.912 686.72 15.467 C 689.997 13.021 691.639 11.61 694.171 9.757 C 702.842 3.048 713.496 -0.589 724.459 -0.584 C 735.424 -0.588 746.079 3.051 754.751 9.761 C 757.358 11.614 759.82 13.543 762.203 15.396 C 766.579 18.876 771.156 22.094 775.912 25.033 C 792.008 33.788 811.227 34.689 828.072 27.479 C 835.527 23.684 842.59 19.165 849.159 13.986 L 854.822 9.831 C 863.546 3.143 874.233 -0.482 885.226 -0.48 C 896.218 -0.481 906.904 3.143 915.627 9.831 L 923.078 15.244 C 927.178 18.434 931.124 21.397 935.374 24.14 C 944.284 29.681 954.711 32.277 965.179 31.56 L 965.849 50.614 C 951.492 51.393 815.807 51.614 804.827 51.652 Z" fill="#0F0F0F" style="stroke-width: 1px;"/>
  <path d="M 1303.88 0.955 C 1290.32 0.798 1157.6 1.008 1142.41 1.009 C 1127.21 1.007 979.216 -2.33 956.496 5.031 L 962.384 23.196 C 979.82 17.564 998.841 19.755 1014.54 29.204 C 1018.12 31.504 1021.32 34.099 1024.6 36.619 C 1027.88 39.139 1030.49 41.216 1033.61 43.368 C 1042.11 49.638 1052.38 53.02 1062.94 53.018 C 1073.49 53.019 1083.77 49.637 1092.26 43.368 C 1095.09 41.365 1097.85 39.213 1100.53 37.14 C 1103.21 35.063 1107.09 32.026 1110.66 29.725 C 1120.44 23.769 1131.67 20.62 1143.11 20.622 C 1154.56 20.619 1165.79 23.769 1175.57 29.725 C 1179.22 32.096 1182.5 34.695 1185.78 37.14 C 1189.05 39.586 1190.69 40.997 1193.23 42.85 C 1201.9 49.559 1212.55 53.196 1223.51 53.191 C 1234.48 53.195 1245.13 49.556 1253.81 42.846 C 1256.41 40.993 1258.88 39.064 1261.26 37.211 C 1265.63 33.731 1270.21 30.513 1274.97 27.574 C 1291.06 18.819 1310.28 17.918 1327.13 25.128 C 1334.58 28.923 1341.65 33.442 1348.21 38.621 L 1353.88 42.776 C 1362.6 49.464 1373.29 53.089 1384.28 53.087 C 1395.27 53.088 1405.96 49.464 1414.68 42.776 L 1422.13 37.363 C 1426.23 34.173 1430.18 31.21 1434.43 28.467 C 1443.34 22.926 1453.77 20.33 1464.24 21.047 L 1464.9 1.993 C 1450.55 1.214 1314.86 0.993 1303.88 0.955 Z" fill="#0F0F0F" style="stroke-width: 1px; transform-origin: 1210.7px 26.722px 0px;" transform="matrix(-1, 0, 0, -1, 0, 0)"/>
</svg>
