<svg width="27" height="27" viewBox="0 0 27 27" fill="none" xmlns="http://www.w3.org/2000/svg">
<g clip-path="url(#clip0_106_607)">
<path d="M23.6807 8.07539C23.6911 8.31291 23.6911 8.53963 23.6911 8.77714C23.7015 15.9782 18.4109 24.2912 8.73572 24.2912C5.88211 24.2912 3.08058 23.4383 0.674805 21.8405C1.09139 21.8945 1.50797 21.9161 1.92456 21.9161C4.28868 21.9161 6.59031 21.0956 8.45452 19.5733C6.20497 19.5301 4.22619 18.0079 3.53882 15.7838C4.33034 15.9458 5.14268 15.9134 5.91336 15.6867C3.46592 15.1901 1.70585 12.9553 1.69544 10.3534C1.69544 10.3318 1.69544 10.3102 1.69544 10.2886C2.42446 10.7097 3.24722 10.9472 4.08038 10.9688C1.77875 9.37093 1.06015 6.18606 2.4557 3.69215C5.13226 7.10374 9.06899 9.1658 13.2973 9.39252C12.8703 7.50319 13.4535 5.5167 14.8179 4.17798C16.932 2.11591 20.2647 2.22387 22.2643 4.41549C23.4412 4.17798 24.5764 3.72454 25.6074 3.08757C25.2116 4.35072 24.3889 5.41954 23.2954 6.09969C24.3368 5.97014 25.3574 5.67864 26.3156 5.2468C25.6074 6.34801 24.7117 7.29807 23.6807 8.07539Z" fill="white"/>
</g>
<defs>
<clipPath id="clip0_106_607">
<rect width="26.9903" height="26.9903" fill="white"/>
</clipPath>
</defs>
</svg>
