<svg width="15" height="150" viewBox="0 0 15 150" fill="none" xmlns="http://www.w3.org/2000/svg">
    <path d="M0.00148335 100.15C-0.0434527 96.2375 0.936829 92.3833 2.84066 88.979C3.78312 87.4218 4.8166 85.9233 5.93415 84.4896C6.44263 83.823 6.95111 83.1361 7.43831 82.3413C8.71185 80.7961 9.41071 78.8456 9.41071 76.8318C9.41071 74.8166 8.71303 72.8674 7.43949 71.321C6.95229 70.6341 6.44382 69.9892 5.93534 69.3226C5.10876 68.2485 4.28222 67.1744 3.51948 65.9923C1.23135 62.2737 0.0170482 57.9809 0.0170484 53.598C0.0170486 49.215 1.23029 44.9213 3.5183 41.2025C4.28101 40.0421 5.0863 39.0542 5.91288 37.9154C6.46392 37.2069 7.01496 36.4757 7.54472 35.7672C8.7012 34.2591 9.3291 32.4046 9.3291 30.4936C9.3291 28.5839 8.7012 26.7281 7.54472 25.22C6.99368 24.4036 6.40007 23.652 5.80762 22.8788C5.21402 22.1056 4.17578 20.7306 3.41305 19.5917C-0.116664 13.7044 -0.937333 6.55021 1.1663 -6.01598e-07L6.35733 1.69746C4.74795 6.7252 5.37467 12.2121 8.07433 16.7338C8.73181 17.7647 9.47323 18.689 10.1934 19.6336C10.9135 20.5782 11.5071 21.3311 12.122 22.2326C13.9123 24.6769 14.8796 27.6427 14.8796 30.6876C14.8796 33.7313 13.9123 36.6959 12.122 39.1402C11.5497 39.9566 10.9348 40.7514 10.3424 41.5246C9.74876 42.2978 8.8808 43.4151 8.22333 44.446C6.52171 47.262 5.62181 50.5 5.62181 53.8012C5.62181 57.1039 6.52171 60.3416 8.22333 63.1576C8.9009 64.2101 9.6435 65.1559 10.3424 66.1006C11.0412 67.0452 11.4444 67.5187 11.9742 68.2488C13.891 70.7447 14.9293 73.8182 14.9293 76.9807C14.9293 80.1444 13.8898 83.2166 11.973 85.7138C11.4433 86.4654 10.8922 87.1751 10.3625 87.862C9.36797 89.1231 8.44918 90.443 7.60841 91.8144C5.10743 96.4512 4.84845 101.997 6.90955 106.852C7.99389 109.001 9.28638 111.038 10.7656 112.931L11.9528 114.564C13.8626 117.075 14.8996 120.157 14.8996 123.329C14.8996 126.5 13.8626 129.582 11.9528 132.094L10.4061 134.242C9.49441 135.424 8.64773 136.561 7.86375 137.787C6.28156 140.352 5.53895 143.36 5.74353 146.379L0.29821 146.572C0.0758996 142.431 1.13541 138.324 3.32783 134.822C4.23953 133.404 5.21392 132.115 6.14572 130.891L7.60729 128.936C8.82761 127.361 9.4922 125.416 9.4922 123.414C9.4922 121.412 8.82882 119.468 7.60847 117.894L6.46382 116.305C4.76811 114.125 3.29132 111.779 2.05653 109.301C0.71439 106.441 0.0121386 103.316 0.00148335 100.15Z" fill="#8447E9" fill-opacity="0.75"/>
</svg>
