<svg viewBox="0 0 151 40" fill="none" xmlns="http://www.w3.org/2000/svg"><path d="M22.8255 29.4629L3.3167 16.0933C1.33972 14.7385 2.01176 11.9177 4.47701 11.2543L25.2114 5.6634C25.6506 5.50594 26.1213 5.45483 26.5844 5.51431C27.0475 5.57378 27.4896 5.74212 27.8741 6.00537C28.2586 6.26861 28.5743 6.61916 28.7951 7.02791C29.0159 7.43667 29.1354 7.89185 29.1436 8.35568L27.9148 27.3151C27.7691 29.5655 24.8025 30.8176 22.8255 29.4629Z" fill="#A1AEBF"/><path d="M16.638 32.7634L5.14474 10.4333C4.88202 9.9225 4.76641 9.34948 4.81066 8.7775C4.85491 8.20552 5.0573 7.65679 5.39551 7.19183C5.73373 6.72687 6.19462 6.36374 6.72737 6.14248C7.26013 5.92122 7.84403 5.85043 8.4147 5.93793L29.7146 9.20388C30.2049 9.27908 30.6704 9.46885 31.0726 9.75758C31.4747 10.0463 31.8022 10.4258 32.028 10.8647C32.2538 11.3037 32.3716 11.7896 32.3715 12.2826C32.3713 12.7756 32.2535 13.2615 32.0276 13.7004L22.2155 32.7645C21.9521 33.2739 21.5523 33.7013 21.0602 33.9996C20.5682 34.298 20.0029 34.4557 19.4265 34.4556C18.85 34.4555 18.2847 34.2976 17.7928 33.9991C17.3008 33.7004 16.9013 33.2729 16.638 32.7634Z" fill="#728095"/><path d="M29.0914 9.10773L18.4736 7.47961L5.43724 10.9962L10.6407 21.1095L22.8256 29.4629C23.0944 29.6452 23.3901 29.7848 23.702 29.8767L28.3302 20.8848L29.0914 9.10773Z" fill="#0D0E14"/><path d="M82.8734 11.7179C82.8734 11.3258 82.9904 10.9426 83.2096 10.6165C83.4289 10.2905 83.7406 10.0364 84.1052 9.88638C84.4698 9.73633 84.871 9.69707 85.2581 9.77356C85.6452 9.85007 86.0008 10.0389 86.2798 10.3161C86.5589 10.5934 86.7489 10.9466 86.8259 11.3312C86.9029 11.7158 86.8634 12.1144 86.7124 12.4766C86.5613 12.8389 86.3056 13.1485 85.9775 13.3663C85.6493 13.5842 85.2635 13.7004 84.8688 13.7004C84.3412 13.6951 83.8368 13.4845 83.4637 13.1139C83.0907 12.7432 82.8787 12.2421 82.8734 11.7179ZM83.2061 14.6695H86.5326V25.6828H83.2061V14.6695Z" fill="#0D0E14"/><path d="M100.898 20.1761C100.936 20.904 100.83 21.6324 100.584 22.3193C100.338 23.0061 99.9584 23.638 99.4662 24.1785C98.9738 24.7189 98.3787 25.1573 97.7151 25.4686C97.0516 25.7797 96.3327 25.9576 95.5997 25.9917C94.9833 26.025 94.367 25.9217 93.7955 25.6893C93.2242 25.4568 92.712 25.1011 92.2961 24.6477V30.0885H88.9706V14.6694H92.2961V15.7044C92.7121 15.2512 93.2243 14.8957 93.7958 14.6634C94.3671 14.4312 94.9834 14.328 95.5997 14.3615C96.3327 14.3955 97.0515 14.5732 97.715 14.8842C98.3786 15.1954 98.9736 15.6337 99.466 16.1741C99.9584 16.7145 100.338 17.3462 100.584 18.0331C100.83 18.7199 100.936 19.4481 100.898 20.1761ZM97.5724 20.1761C97.5593 19.6604 97.3935 19.1601 97.0956 18.7376C96.7978 18.3151 96.3811 17.9893 95.8978 17.801C95.4144 17.6126 94.8859 17.5701 94.3784 17.6787C93.8709 17.7873 93.4068 18.0421 93.0443 18.4114C92.6819 18.7807 92.4371 19.248 92.3406 19.7548C92.2442 20.2616 92.3004 20.7855 92.5021 21.2608C92.7039 21.736 93.0422 22.1416 93.4747 22.4268C93.9074 22.712 94.4151 22.864 94.9342 22.864C95.2908 22.88 95.6466 22.8208 95.9785 22.6905C96.3104 22.5601 96.6107 22.3615 96.8599 22.1077C97.109 21.8538 97.3013 21.5505 97.4241 21.2176C97.5469 20.8847 97.5975 20.5297 97.5724 20.1761Z" fill="#0D0E14"/><path d="M111.162 22.3768C111.162 24.9103 108.945 25.9895 106.551 25.9895C105.583 26.0765 104.612 25.8731 103.762 25.4056C102.912 24.9382 102.224 24.2282 101.784 23.3675L104.666 21.7383C104.783 22.1362 105.034 22.482 105.377 22.718C105.72 22.9539 106.135 23.0657 106.551 23.0347C107.349 23.0347 107.747 22.7917 107.747 22.3519C107.747 21.1398 102.293 21.7793 102.293 17.9678C102.293 15.5672 104.332 14.3561 106.643 14.3561C107.51 14.3291 108.368 14.5334 109.128 14.9479C109.889 15.3623 110.523 15.9716 110.966 16.7124L108.129 18.2325C108.004 17.9434 107.797 17.697 107.533 17.5241C107.269 17.3511 106.959 17.2594 106.643 17.2602C106.067 17.2602 105.712 17.4762 105.712 17.8771C105.709 19.1411 111.162 18.3038 111.162 22.3768Z" fill="#0D0E14"/><path d="M123.317 14.6696V25.6828H119.991V24.6457C119.608 25.1026 119.119 25.4626 118.568 25.6962C118.018 25.9298 117.418 26.0304 116.82 25.9897C114.581 25.9897 112.675 24.4037 112.675 21.4294V14.6696H116V20.9476C115.972 21.2101 116.003 21.4756 116.089 21.7253C116.174 21.9751 116.314 22.2034 116.497 22.3942C116.681 22.585 116.904 22.7336 117.151 22.8299C117.399 22.9263 117.664 22.9678 117.93 22.9517C119.149 22.9517 119.996 22.2473 119.996 20.6829V14.6696H123.317Z" fill="#0D0E14"/><path d="M142.377 18.9197V25.6828H139.052V19.2071C139.052 18.1062 138.519 17.4007 137.456 17.4007C136.346 17.4007 135.727 18.1721 135.727 19.4718V25.6828H132.4V19.2071C132.4 18.1062 131.868 17.4007 130.804 17.4007C129.696 17.4007 129.075 18.1721 129.075 19.4718V25.6828H125.749V14.6695H129.08V15.6786C129.425 15.2293 129.877 14.8729 130.396 14.6421C130.915 14.4113 131.485 14.3134 132.051 14.3573C132.62 14.3297 133.187 14.449 133.696 14.7037C134.205 14.9583 134.639 15.3396 134.956 15.8104C135.324 15.3178 135.813 14.9261 136.375 14.672C136.937 14.4178 137.556 14.3096 138.171 14.3573C140.716 14.3616 142.377 16.1669 142.377 18.9197Z" fill="#0D0E14"/><path d="M145.195 14.6014C146.559 14.6014 147.664 13.5034 147.664 12.149C147.664 10.7945 146.559 9.69653 145.195 9.69653C143.831 9.69653 142.727 10.7945 142.727 12.149C142.727 13.5034 143.831 14.6014 145.195 14.6014Z" fill="#0D0E14"/><path d="M37.4703 9.60364H40.7968V25.6828H37.4703V9.60364ZM42.6803 20.1762C42.6767 19.0215 43.0179 17.8917 43.6609 16.93C44.3039 15.9681 45.2198 15.2175 46.2925 14.7731C47.3652 14.3288 48.5464 14.2106 49.6868 14.4336C50.8271 14.6567 51.8752 15.2108 52.6983 16.0261C53.5214 16.8412 54.0825 17.8806 54.3106 19.0128C54.5386 20.1451 54.4234 21.319 53.9795 22.3861C53.5356 23.4532 52.783 24.3654 51.8169 25.0073C50.8508 25.6491 49.7148 25.9918 48.5525 25.9918C47.7806 25.9999 47.0149 25.8553 46.2999 25.5661C45.585 25.277 44.9351 24.8492 44.3884 24.3078C43.8417 23.7664 43.4091 23.1221 43.1158 22.4128C42.8225 21.7034 42.6745 20.943 42.6803 20.1762ZM51.1058 20.1762C51.0928 19.678 50.9323 19.1949 50.6442 18.787C50.3563 18.3792 49.9536 18.0647 49.4866 17.883C49.0196 17.7014 48.5091 17.6604 48.0189 17.7656C47.5287 17.8706 47.0805 18.117 46.7305 18.4737C46.3804 18.8306 46.1441 19.282 46.0509 19.7715C45.9578 20.2611 46.012 20.767 46.2069 21.2262C46.4016 21.6852 46.7284 22.0771 47.1462 22.3527C47.564 22.6283 48.0543 22.7753 48.5558 22.7756C48.8992 22.7853 49.241 22.7241 49.5594 22.5961C49.8779 22.4682 50.1662 22.276 50.4062 22.0317C50.6462 21.7876 50.8327 21.4966 50.9538 21.1773C51.075 20.8578 51.1282 20.5169 51.1102 20.1762H51.1058ZM67.6884 14.6663V25.1297C67.6884 28.8299 64.7838 30.3932 61.8357 30.3932C60.7981 30.471 59.7588 30.2635 58.8318 29.7933C57.905 29.3232 57.1263 28.6086 56.5811 27.728L59.4183 26.0977C59.6473 26.5573 60.0122 26.9365 60.464 27.1846C60.9158 27.4327 61.433 27.5378 61.9466 27.486C62.2745 27.5304 62.6081 27.5012 62.923 27.4004C63.238 27.2996 63.526 27.13 63.7661 26.9037C64.0061 26.6776 64.192 26.4008 64.31 26.0937C64.428 25.7866 64.475 25.4571 64.4478 25.1297V24.1163C64.0582 24.5895 63.5625 24.9655 63.0004 25.2141C62.4381 25.4626 61.8251 25.5769 61.2104 25.5478C59.7473 25.5025 58.3591 24.8933 57.3402 23.849C56.3212 22.8047 55.7514 21.4075 55.7514 19.9531C55.7514 18.4986 56.3212 17.1013 57.3402 16.0571C58.3591 15.0128 59.7473 14.4035 61.2104 14.3583C61.8251 14.3291 62.4381 14.4434 63.0004 14.692C63.5625 14.9406 64.0582 15.3166 64.4478 15.7899V14.6663H67.6884ZM64.4521 19.9525C64.4741 19.4206 64.3353 18.8943 64.0538 18.4413C63.7722 17.9883 63.3607 17.6293 62.8722 17.4105C62.3837 17.1918 61.8404 17.1232 61.3123 17.2136C60.7842 17.304 60.2954 17.5493 59.9087 17.9179C59.522 18.2865 59.2552 18.7615 59.1425 19.282C59.0298 19.8025 59.0763 20.3445 59.2762 20.8386C59.4759 21.3325 59.82 21.7558 60.2639 22.054C60.7078 22.3522 61.2314 22.5116 61.7672 22.5119C62.1166 22.5363 62.4673 22.4877 62.7967 22.3694C63.1261 22.2511 63.4269 22.0656 63.6798 21.8248C63.9326 21.5841 64.1321 21.2934 64.2651 20.9716C64.3981 20.6496 64.4618 20.3036 64.4521 19.9558V19.9525ZM69.5718 20.1686C69.5682 19.0139 69.9095 17.8842 70.5525 16.9224C71.1955 15.9606 72.1113 15.2099 73.184 14.7656C74.2568 14.3212 75.438 14.203 76.5784 14.4261C77.7187 14.6491 78.7666 15.2032 79.5898 16.0185C80.4129 16.8336 80.974 17.8731 81.2021 19.0053C81.4301 20.1375 81.315 21.3114 80.8711 22.3785C80.4272 23.4456 79.6745 24.3579 78.7085 24.9997C77.7424 25.6416 76.6063 25.9842 75.444 25.9842C74.6728 25.9923 73.9077 25.8479 73.1932 25.5592C72.4788 25.2707 71.8293 24.8435 71.2827 24.3029C70.736 23.7623 70.3033 23.119 70.0096 22.4104C69.7158 21.7019 69.567 20.9424 69.5718 20.1762V20.1686ZM77.9974 20.1686C77.9845 19.6702 77.824 19.1867 77.5361 18.7784C77.248 18.3702 76.8451 18.0555 76.3779 17.8736C75.9107 17.6917 75.3999 17.6507 74.9093 17.7558C74.4188 17.8608 73.9703 18.1074 73.6202 18.4643C73.2699 18.8214 73.0334 19.2731 72.9403 19.7629C72.8471 20.2528 72.9015 20.7592 73.0965 21.2184C73.2915 21.6778 73.6185 22.0697 74.0367 22.3455C74.4549 22.6211 74.9456 22.768 75.4473 22.768C75.7897 22.777 76.1302 22.7157 76.4476 22.5879C76.7651 22.4601 77.0525 22.2684 77.292 22.0251C77.5313 21.7818 77.7176 21.492 77.8389 21.1738C77.9604 20.8556 78.0143 20.516 77.9974 20.1762V20.1686Z" fill="#0D0E14"/></svg>