<svg viewBox="0 0 151 40" fill="none" xmlns="http://www.w3.org/2000/svg"><path d="M35.8929 14.6332C36.2947 14.6332 36.4286 14.7773 36.4286 15.1654V23.9472H40.9711C41.3617 23.9472 41.5068 24.0914 41.5068 24.4795V25.2556C41.5068 25.6437 41.3617 25.7879 40.9711 25.7879H34.9889C34.5983 25.7879 34.442 25.6437 34.442 25.2556V15.1654C34.442 14.7773 34.5983 14.6332 34.9889 14.6332H35.8929Z" fill="#0D0E14"/><path d="M45.4689 18.503C45.4689 15.9416 47.0984 14.4004 49.9332 14.4004C52.768 14.4004 54.3975 15.9416 54.3975 18.503V21.9182C54.3975 24.4795 52.7569 26.0208 49.9332 26.0208C47.1095 26.0208 45.4689 24.4795 45.4689 21.9182V18.503ZM52.5225 18.503C52.5225 17.0615 51.6185 16.2854 49.989 16.2854C48.3595 16.2854 47.4667 17.0726 47.4667 18.503V21.9403C47.4667 23.3929 48.3595 24.158 49.989 24.158C51.6185 24.158 52.5225 23.3596 52.5225 21.9403V18.503Z" fill="#0D0E14"/><path d="M67.6903 19.6784C68.1255 19.6784 68.226 19.8225 68.226 20.2106V22.3174C68.2378 22.8136 68.1377 23.3062 67.933 23.7589C67.7282 24.2118 67.4242 24.6133 67.0429 24.9342C66.0962 25.6832 64.9024 26.0547 63.6947 25.9765C60.804 25.9765 59.2303 24.4352 59.2303 21.8738V18.4365C59.2303 15.9084 60.8598 14.3561 63.6947 14.3561C65.9268 14.3561 67.3777 15.232 67.9916 16.984C68.026 17.0498 68.0444 17.1227 68.0454 17.1968C68.0464 17.2709 68.03 17.3443 67.9975 17.411C67.965 17.4777 67.9173 17.5361 67.8581 17.5813C67.799 17.6264 67.73 17.6574 67.6568 17.6714L66.7862 17.9708C66.4068 18.1039 66.2505 18.0263 66.1166 17.6382C65.9316 17.1646 65.5931 16.7656 65.1545 16.5046C64.7159 16.2436 64.2023 16.1352 63.6947 16.1967C62.054 16.1967 61.1612 16.984 61.1612 18.4143V21.9404C61.1612 23.3929 62.0652 24.158 63.6947 24.158C65.3242 24.158 66.3286 23.4151 66.3286 22.3285V21.5079H63.9067C63.5049 21.5079 63.3599 21.3527 63.3599 20.9646V20.2106C63.3599 19.8225 63.5049 19.6784 63.9067 19.6784H67.6903Z" fill="#0D0E14"/><path d="M72.8353 18.503C72.8353 15.9416 74.4648 14.4004 77.2997 14.4004C80.1345 14.4004 81.764 15.9416 81.764 18.503V21.9182C81.764 24.4795 80.1234 26.0208 77.2997 26.0208C74.476 26.0208 72.8353 24.4795 72.8353 21.9182V18.503ZM79.8778 18.503C79.8778 17.0615 78.9738 16.2854 77.3555 16.2854C75.7371 16.2854 74.822 17.0726 74.822 18.503V21.9403C74.822 23.3929 75.726 24.158 77.3555 24.158C78.9849 24.158 79.8778 23.3596 79.8778 21.9403V18.503Z" fill="#0D0E14"/><path d="M87.0206 14.9547C87.0206 14.7108 87.0987 14.6332 87.3442 14.6332H87.8576C88.1032 14.6332 88.159 14.7108 88.159 14.9547V25.4663C88.159 25.7102 88.159 25.7879 87.8576 25.7879H87.3442C87.0987 25.7879 87.0206 25.7102 87.0206 25.4663V14.9547Z" fill="#0D0E14"/><path d="M98.3265 14.6332C99.256 14.6332 100.147 15 100.805 15.653C101.462 16.3058 101.831 17.1914 101.831 18.1149C101.831 19.0383 101.462 19.9239 100.805 20.5768C100.147 21.2297 99.256 21.5965 98.3265 21.5965H94.9782V25.4663C94.9782 25.7102 94.9224 25.7879 94.6881 25.7879H94.1635C93.9291 25.7879 93.8398 25.7102 93.8398 25.4663V14.9547C93.8398 14.7108 93.9291 14.6332 94.1635 14.6332H98.3265ZM98.226 20.4988C98.5456 20.4988 98.862 20.4363 99.1572 20.3149C99.4523 20.1933 99.7206 20.0153 99.9465 19.7908C100.172 19.5664 100.352 19.2998 100.474 19.0067C100.596 18.7134 100.659 18.399 100.659 18.0816C100.659 17.7641 100.596 17.4498 100.474 17.1565C100.352 16.8633 100.172 16.5968 99.9465 16.3724C99.7206 16.1479 99.4523 15.9699 99.1572 15.8483C98.862 15.7269 98.5456 15.6644 98.226 15.6644H94.8778V20.4988H98.226Z" fill="#0D0E14"/><path d="M110.548 14.4115C111.409 14.317 112.279 14.5012 113.027 14.9366C113.774 15.3722 114.361 16.0357 114.7 16.8287C114.789 17.0061 114.7 17.1503 114.521 17.239L114.03 17.4607C113.829 17.5383 113.751 17.5273 113.628 17.3166C113.375 16.728 112.94 16.2346 112.387 15.9077C111.833 15.5808 111.189 15.4374 110.548 15.4981C108.662 15.4981 107.635 16.241 107.635 17.5716C107.624 17.9782 107.761 18.3752 108.022 18.689C108.282 19.0028 108.648 19.2124 109.052 19.2792C109.652 19.4737 110.275 19.5929 110.905 19.634C111.667 19.6744 112.42 19.8276 113.137 20.0886C113.687 20.2615 114.16 20.617 114.477 21.0955C114.794 21.5741 114.936 22.1465 114.878 22.7165C114.878 24.79 113.36 26.043 110.57 26.043C109.655 26.147 108.731 25.9363 107.954 25.446C107.176 24.9558 106.591 24.2154 106.295 23.3485C106.276 23.3091 106.265 23.2657 106.264 23.2216C106.263 23.1774 106.272 23.1338 106.29 23.0935C106.308 23.0533 106.335 23.0174 106.369 22.9887C106.403 22.9599 106.442 22.9389 106.485 22.9272L106.976 22.7498C107.015 22.734 107.056 22.7265 107.098 22.7276C107.14 22.7287 107.181 22.7385 107.219 22.7562C107.257 22.7739 107.29 22.7992 107.318 22.8306C107.345 22.862 107.366 22.8986 107.378 22.9383C107.628 23.5646 108.072 24.0958 108.646 24.4547C109.219 24.8135 109.894 24.9815 110.57 24.9341C112.679 24.9341 113.717 24.2023 113.717 22.7165C113.737 22.326 113.617 21.9411 113.377 21.6304C113.138 21.3198 112.796 21.1035 112.412 21.02C111.834 20.8489 111.239 20.7447 110.637 20.7096L109.432 20.5543C109.054 20.4748 108.682 20.3748 108.316 20.2549C107.954 20.1464 107.616 19.9694 107.322 19.7338C107.026 19.4675 106.793 19.1397 106.638 18.7737C106.484 18.4077 106.413 18.0125 106.429 17.616C106.507 15.6755 107.97 14.4115 110.548 14.4115Z" fill="#0D0E14"/><path d="M120.894 21.9957C120.941 22.7799 121.288 23.5165 121.864 24.055C122.44 24.5936 123.201 24.8934 123.991 24.8934C124.781 24.8934 125.542 24.5936 126.118 24.055C126.694 23.5165 127.04 22.7799 127.088 21.9957V14.9547C127.088 14.7108 127.166 14.6332 127.412 14.6332H127.925C128.171 14.6332 128.249 14.7108 128.249 14.9547V21.9846C128.249 24.5016 126.753 26.0207 123.996 26.0207C121.24 26.0207 119.744 24.5016 119.744 21.9846V14.9547C119.744 14.7108 119.822 14.6332 120.057 14.6332H120.581C120.816 14.6332 120.894 14.7108 120.894 14.9547V21.9957Z" fill="#0D0E14"/><path d="M143.651 14.6332C143.896 14.6332 143.974 14.7109 143.974 14.9548V25.4664C143.974 25.7103 143.896 25.7879 143.651 25.7879H143.182C142.948 25.7879 142.869 25.7103 142.869 25.4664V19.0685C142.869 18.1377 142.933 17.2078 143.059 16.2854H142.992C142.644 17.1288 142.237 17.9476 141.776 18.7359L139.376 22.9383C139.347 23.0112 139.296 23.0735 139.23 23.1171C139.164 23.1606 139.087 23.1833 139.008 23.1822H138.695C138.615 23.1826 138.537 23.1597 138.469 23.1165C138.402 23.0731 138.348 23.0112 138.316 22.9383L135.883 18.6915C135.451 17.9146 135.078 17.1066 134.767 16.2743H134.7C134.814 17.2051 134.874 18.1419 134.878 19.0796V25.4664C134.878 25.7103 134.8 25.7879 134.555 25.7879H134.119C133.874 25.7879 133.796 25.7103 133.796 25.4664V14.9548C133.796 14.7109 133.874 14.6332 134.119 14.6332H134.521C134.613 14.6248 134.705 14.6447 134.785 14.6903C134.865 14.736 134.928 14.8052 134.968 14.8883L138.874 21.7851L142.758 14.9548C142.881 14.7219 142.948 14.6887 143.193 14.6887L143.651 14.6332Z" fill="#0D0E14"/><path d="M16.0378 24.1027V32.1194C16.0378 32.4268 15.915 32.7215 15.6962 32.9387C15.4776 33.156 15.1809 33.2781 14.8715 33.2781C14.5623 33.2781 14.2656 33.156 14.0469 32.9387C13.8281 32.7215 13.7052 32.4268 13.7052 32.1194V24.1137C14.03 24.3494 14.4193 24.4809 14.8213 24.4907C15.2595 24.5032 15.6888 24.3662 16.0378 24.1027ZM25.971 21.7852C25.675 21.7852 25.391 21.9021 25.1818 22.11C24.9725 22.3179 24.8549 22.6 24.8549 22.894V24.2912C24.8549 24.5985 24.9778 24.8932 25.1965 25.1105C25.4152 25.3278 25.7118 25.4499 26.0212 25.4499C26.3306 25.4499 26.6272 25.3278 26.8459 25.1105C27.0646 24.8932 27.1875 24.5985 27.1875 24.2912V22.9495C27.1962 22.7905 27.1703 22.6315 27.1116 22.4833C27.0529 22.3352 26.9628 22.2013 26.8473 22.0908C26.7319 21.9804 26.5939 21.8959 26.4427 21.8431C26.2915 21.7904 26.1306 21.7707 25.971 21.7852ZM11.1717 27.1408C10.7701 27.1288 10.3813 26.9976 10.0556 26.7638V34.8027C10.0556 35.1115 10.1791 35.4077 10.3989 35.626C10.6186 35.8443 10.9167 35.967 11.2275 35.967C11.5383 35.967 11.8364 35.8443 12.0562 35.626C12.2759 35.4077 12.3994 35.1115 12.3994 34.8027V26.8193C12.0349 27.0533 11.6049 27.166 11.1717 27.1408ZM22.3325 19.3791C22.1813 19.3716 22.0302 19.3947 21.8882 19.4471C21.7464 19.4994 21.6167 19.5799 21.507 19.6836C21.3974 19.7874 21.3102 19.9121 21.2506 20.0504C21.1911 20.1887 21.1604 20.3376 21.1606 20.4879V26.664C21.1606 26.9728 21.2841 27.269 21.5038 27.4873C21.7237 27.7056 22.0217 27.8283 22.3325 27.8283C22.6434 27.8283 22.9415 27.7056 23.1612 27.4873C23.381 27.269 23.5044 26.9728 23.5044 26.664V20.5655C23.5134 20.4055 23.4872 20.2455 23.4279 20.0965C23.3685 19.9475 23.2774 19.813 23.1607 19.7023C23.0439 19.5917 22.9045 19.5074 22.752 19.4555C22.5994 19.4035 22.4372 19.385 22.2767 19.4013L22.3325 19.3791ZM18.6271 21.752C18.2067 21.7491 17.7976 21.6175 17.4553 21.375V29.4361C17.4553 29.7449 17.5787 30.041 17.7985 30.2594C18.0183 30.4777 18.3163 30.6003 18.6271 30.6003C18.938 30.6003 19.236 30.4777 19.4558 30.2594C19.6756 30.041 19.799 29.7449 19.799 29.4361V21.3861C19.445 21.6481 19.0127 21.7847 18.5713 21.7741L18.6271 21.752ZM8.63821 27.9281V5.40803C8.63527 5.13352 8.52344 4.87126 8.32701 4.67818C8.13058 4.48511 7.86541 4.37682 7.58909 4.37683H7.34355C7.06723 4.37682 6.80206 4.48511 6.60563 4.67818C6.4092 4.87126 6.29737 5.13352 6.29443 5.40803V27.9281C6.29443 28.2045 6.40497 28.4696 6.60171 28.6651C6.79846 28.8606 7.06531 28.9704 7.34355 28.9704H7.58909C7.86734 28.9704 8.13418 28.8606 8.33093 28.6651C8.52768 28.4696 8.63821 28.2045 8.63821 27.9281ZM11.2945 26.287H11.0489C10.7707 26.287 10.5038 26.1772 10.3071 25.9818C10.1104 25.7863 9.99983 25.5212 9.99983 25.2447V8.09136C10.0028 7.81686 10.1146 7.55459 10.311 7.36152C10.5075 7.16844 10.7726 7.06015 11.0489 7.06016H11.2945C11.5708 7.06015 11.836 7.16844 12.0324 7.36152C12.2288 7.55459 12.3407 7.81686 12.3436 8.09136V25.2669C12.3436 25.5433 12.2331 25.8085 12.0363 26.0039C11.8396 26.1994 11.5727 26.3092 11.2945 26.3092V26.287ZM14.9887 23.648H14.732C14.4568 23.648 14.1927 23.5394 13.9981 23.346C13.8034 23.1526 13.6941 22.8904 13.6941 22.6168V10.7525C13.6926 10.6162 13.7184 10.4809 13.7698 10.3545C13.8213 10.2281 13.8975 10.1131 13.9941 10.0162C14.0906 9.91925 14.2056 9.84229 14.3322 9.78978C14.4589 9.73727 14.5947 9.71022 14.732 9.71023H14.9887C15.2651 9.71316 15.529 9.82425 15.7233 10.0194C15.9177 10.2146 16.0267 10.478 16.0267 10.7525V22.6168C16.0267 22.8904 15.9173 23.1526 15.7227 23.346C15.528 23.5394 15.2641 23.648 14.9887 23.648ZM18.6829 20.9314H18.4486C18.1722 20.9314 17.907 20.8232 17.7106 20.6301C17.5142 20.437 17.4024 20.1748 17.3995 19.9002V13.5135C17.3903 13.3711 17.4106 13.2284 17.4593 13.0941C17.5078 12.9599 17.5837 12.837 17.682 12.7331C17.7804 12.6291 17.8991 12.5464 18.031 12.4898C18.1629 12.4334 18.3049 12.4043 18.4486 12.4047H18.6941C18.9723 12.4047 19.2392 12.5144 19.436 12.7099C19.6327 12.9054 19.7432 13.1705 19.7432 13.4469V19.8781C19.7447 20.0159 19.7187 20.1526 19.6666 20.2803C19.6145 20.4081 19.5375 20.5243 19.4399 20.6223C19.3423 20.7202 19.2263 20.7979 19.0981 20.8511C18.9701 20.9042 18.8328 20.9314 18.6941 20.9314H18.6829ZM22.3883 18.5475H22.1428C21.8646 18.5475 21.5977 18.4377 21.4009 18.2422C21.2042 18.0468 21.0937 17.7816 21.0937 17.5052V15.8531C21.0966 15.5785 21.2084 15.3163 21.4048 15.1232C21.6013 14.9301 21.8665 14.8219 22.1428 14.8219H22.3883C22.6647 14.8219 22.9299 14.9301 23.1263 15.1232C23.3227 15.3163 23.4346 15.5785 23.4375 15.8531V17.5052C23.4375 17.7797 23.3285 18.0432 23.1341 18.2384C22.9398 18.4335 22.6758 18.5446 22.3995 18.5475H22.3883Z" fill="#0D0E14"/></svg>