<svg viewBox="0 0 151 40" fill="none" xmlns="http://www.w3.org/2000/svg"><path d="M27.4515 0.909058C25.0482 0.909058 22.6683 1.39115 20.4479 2.32766C18.2276 3.26427 16.2102 4.63697 14.5107 6.36749C12.8113 8.09811 11.4633 10.1525 10.5436 12.4136C9.6239 14.6746 9.15048 17.0981 9.15048 19.5454C9.15048 21.9927 9.6239 24.4162 10.5436 26.6773C11.4633 28.9384 12.8113 30.9927 14.5107 32.7233C16.2102 34.4539 18.8257 35.427 21.0461 36.3636C23.2665 37.3001 25.0482 38.1818 27.4515 38.1818V29.7306C26.2498 29.7306 24.9015 29.1047 23.7913 28.6363C22.6811 28.1681 21.8308 26.9996 20.9811 26.1344C20.1314 25.2691 19.4574 24.2419 18.9976 23.1114C18.5376 21.9808 18.301 21.2237 18.301 20C18.301 18.7762 18.5376 17.11 18.9976 15.9795C19.4574 14.849 20.1314 13.8217 20.9811 12.9565C21.8308 12.0912 22.8395 11.4048 23.9497 10.9366C25.0599 10.4682 26.2498 10.2272 27.4515 10.2272V0.909058Z" fill="#0D0E14"/><path d="M27.909 25.4545C31.1939 25.4545 33.8568 22.809 33.8568 19.5454C33.8568 16.2819 31.1939 13.6364 27.909 13.6364C24.6241 13.6364 21.9612 16.2819 21.9612 19.5454C21.9612 22.809 24.6241 25.4545 27.909 25.4545Z" fill="#0D0E14"/><path d="M9.15048 20C9.15048 22.3876 9.63574 24.752 10.5784 26.9579C11.5211 29.1638 12.9028 31.1681 14.6447 32.8565C16.3867 34.5448 18.4545 35.8841 20.7304 36.7978C23.0063 37.7115 25.4456 38.1818 27.909 38.1818C30.3724 38.1818 32.8117 37.7115 35.0876 36.7978C37.3635 35.8841 39.4313 34.5448 41.1733 32.8565C42.9151 31.1681 44.2968 29.1638 45.2396 26.9579C46.1822 24.752 46.6675 22.3876 46.6675 20H37.2882C37.2882 21.1939 37.0457 22.376 36.5742 23.479C36.1029 24.5819 35.4121 25.5841 34.5411 26.4283C33.6702 27.2724 32.6362 27.942 31.4983 28.3989C30.3603 28.8558 29.1407 29.0909 27.909 29.0909C26.6772 29.0909 25.4576 28.8558 24.3197 28.3989C23.1817 27.942 22.1478 27.2724 21.2768 26.4283C20.4059 25.5841 19.7151 24.5819 19.2437 23.479C18.7723 22.376 18.5297 21.1939 18.5297 20H9.15048Z" fill="#0D0E14"/><path d="M33.8568 20C33.8568 18.3123 33.2302 16.6937 32.1148 15.5003C30.9993 14.3068 29.4865 13.6364 27.909 13.6364C26.3316 13.6364 24.8188 14.3068 23.7033 15.5003C22.5878 16.6937 21.9612 18.3123 21.9612 20H27.909H33.8568Z" fill="#0D0E14"/><path d="M56.733 12.7273H53.9879V25.4546H56.733V12.7273Z" fill="#0D0E14"/><path d="M57.6481 20.9091C57.6481 23.7196 59.816 25.4546 62.6808 25.4546C65.5456 25.4546 67.7136 23.7196 67.7136 20.9091C67.7136 18.0986 65.5456 16.3636 62.6808 16.3636C59.816 16.3636 57.6481 18.0986 57.6481 20.9091ZM60.087 20.9091C60.087 19.2436 61.171 18.272 62.6808 18.272C64.1907 18.272 65.2746 19.2436 65.2746 20.9091C65.2746 22.5746 64.1907 23.5462 62.6808 23.5462C61.171 23.5462 60.087 22.5746 60.087 20.9091Z" fill="#0D0E14"/><path d="M75.6055 16.6098V17.7875H75.4302C74.9043 17.0317 74.0629 16.3636 72.5553 16.3636C70.4868 16.3636 68.6287 18.1216 68.6287 20.8287C68.6287 23.5359 70.4868 25.2938 72.5553 25.2938C74.0629 25.2938 74.9043 24.6082 75.3951 23.9227H75.5704V24.7665C75.5704 26.4541 74.5888 27.2275 73.1513 27.2275C71.7139 27.2275 70.9776 26.4541 70.6796 25.452L68.6988 26.3134C69.1546 27.6318 70.4868 29.0909 73.1864 29.0909C75.9561 29.0909 77.7792 27.6318 77.7792 24.8191V16.6098H75.6055ZM73.2214 23.3953C71.8541 23.3953 70.8374 22.4109 70.8374 20.8287C70.8374 19.2466 71.8541 18.2622 73.2214 18.2622C74.5888 18.2622 75.6055 19.2466 75.6055 20.8287C75.6055 22.4109 74.5888 23.3953 73.2214 23.3953Z" fill="#0D0E14"/><path d="M79.6093 20.9091C79.6093 23.7196 81.7772 25.4546 84.6421 25.4546C87.5069 25.4546 89.6748 23.7196 89.6748 20.9091C89.6748 18.0986 87.5069 16.3636 84.6421 16.3636C81.7772 16.3636 79.6093 18.0986 79.6093 20.9091ZM82.0482 20.9091C82.0482 19.2436 83.1322 18.272 84.6421 18.272C86.1519 18.272 87.2359 19.2436 87.2359 20.9091C87.2359 22.5746 86.1519 23.5462 84.6421 23.5462C83.1322 23.5462 82.0482 22.5746 82.0482 20.9091Z" fill="#0D0E14"/><path d="M91.5049 13.4336C91.5049 14.3915 92.1065 15.0489 92.8779 15.0489C93.6484 15.0489 94.25 14.3915 94.25 13.4336C94.25 12.4757 93.6484 11.8182 92.8779 11.8182C92.1065 11.8182 91.5049 12.4757 91.5049 13.4336ZM93.8487 16.1383H91.9062V25.4546H93.8487V16.1383Z" fill="#0D0E14"/><path d="M96.0801 29.0909H98.2893V24.3585H98.464C98.9548 25.0756 99.7962 25.7567 101.304 25.7567C103.372 25.7567 105.231 23.9642 105.231 21.0602C105.231 18.1562 103.372 16.3636 101.304 16.3636C99.7962 16.3636 98.9548 17.0448 98.4295 17.8157H98.2537V16.6146H96.0801V29.0909ZM100.638 23.8208C99.2709 23.8208 98.2537 22.8169 98.2537 21.0602C98.2537 19.3035 99.2709 18.2996 100.638 18.2996C102.005 18.2996 103.022 19.3035 103.022 21.0602C103.022 22.8169 102.005 23.8208 100.638 23.8208Z" fill="#0D0E14"/><path d="M107.397 19.0181C107.397 20.7183 108.924 21.3429 110.861 21.6899L111.346 21.7766C112.501 21.9847 113.023 22.245 113.023 22.8002C113.023 23.3554 112.501 23.789 111.421 23.789C110.34 23.789 109.465 23.3727 109.222 22.1235L107.061 22.644C107.378 24.4483 108.998 25.4546 111.421 25.4546C113.768 25.4546 115.296 24.431 115.296 22.6267C115.296 20.8223 113.731 20.3366 111.644 19.955L111.16 19.8682C110.191 19.6947 109.669 19.4518 109.669 18.8793C109.669 18.3588 110.154 18.0292 111.048 18.0292C111.943 18.0292 112.575 18.3761 112.799 19.313L114.924 18.7058C114.476 17.3179 113.117 16.3636 111.048 16.3636C108.849 16.3636 107.397 17.3179 107.397 19.0181Z" fill="#0D0E14"/><path d="M125.362 25.3103V16.3636H122.96V20.9813C122.96 22.6407 122.103 23.6147 120.634 23.6147C119.338 23.6147 118.614 22.9474 118.614 21.5945V16.3636H116.211V21.7028C116.211 23.9214 117.68 25.4546 119.891 25.4546C121.625 25.4546 122.426 24.7331 122.808 23.9755H122.998V25.3103H125.362Z" fill="#0D0E14"/><path d="M127.192 16.5079V25.4546H129.601V20.1155C129.601 18.8889 130.213 18.2035 131.321 18.2035C132.277 18.2035 132.85 18.7085 132.85 19.6826V25.4546H135.259V20.1155C135.259 18.8889 135.871 18.2035 136.979 18.2035C137.935 18.2035 138.508 18.7085 138.508 19.6826V25.4546H140.918V19.5743C140.918 17.4098 139.502 16.3636 137.744 16.3636C136.196 16.3636 135.489 17.013 135.03 17.7706H134.838C134.398 16.9229 133.615 16.3636 132.238 16.3636C130.862 16.3636 130.116 16.9408 129.754 17.6263H129.562V16.5079H127.192Z" fill="#0D0E14"/></svg>