<svg viewBox="0 0 151 40" fill="none" xmlns="http://www.w3.org/2000/svg"><path d="M27.8132 17.0173C30.7023 17.0173 31.3522 18.2564 31.3522 19.8019C31.3522 21.4401 30.566 22.6137 27.8252 22.6137C25.1019 22.6137 24.3147 21.5082 24.3147 19.8019C24.3147 18.1228 25.1728 17.0173 27.8132 17.0173Z" fill="#0D0E14"/><path d="M58.0054 17.0173C60.8945 17.0173 61.5444 18.2564 61.5444 19.8019C61.5444 21.4401 60.7573 22.6137 58.0174 22.6137C55.295 22.6137 54.5069 21.5082 54.5069 19.8019C54.5069 18.1228 55.365 17.0173 58.0054 17.0173Z" fill="#0D0E14"/><path fill-rule="evenodd" clip-rule="evenodd" d="M2.23422 35.9092V3.6792H148.231V35.9092H2.23422ZM71.8161 34.091H146.39V5.49738H71.8161V34.091ZM27.827 25.3574C32.956 25.3574 35.1122 23.1728 35.1122 19.761C35.1122 16.2937 32.6835 14.2328 27.827 14.2328C23.0451 14.2328 20.528 16.471 20.528 19.761C20.528 23.4737 23.1685 25.3574 27.827 25.3574ZM9.99471 14.4783V25.1937H20.3466V22.3401H13.74V14.4783H9.99471ZM46.6978 25.1937L46.6012 24.1556C45.3483 25.0385 43.8233 25.4634 42.2879 25.3574C39.9798 25.3574 38.0574 24.6747 36.9793 23.2965C36.2682 22.2903 35.9092 21.0825 35.9565 19.8565C35.9161 18.6562 36.2875 17.4777 37.0106 16.5119C38.1016 15.1747 40.0792 14.2874 43.0235 14.2874C46.4106 14.2874 48.4011 15.311 49.2573 17.031C49.4411 17.4361 49.549 17.8707 49.5758 18.3137H45.9926C45.9023 18.0445 45.7343 17.8072 45.5093 17.631C44.7955 17.1637 43.9431 16.9477 43.0898 17.0174C42.5892 16.9575 42.0814 17.0031 41.6 17.1514C41.1187 17.2997 40.6747 17.5471 40.2974 17.8774C39.8689 18.4565 39.6678 19.1694 39.7312 19.8837C39.6815 20.5653 39.8664 21.2435 40.256 21.8083C40.6367 22.1586 41.0893 22.4238 41.5829 22.5864C42.0767 22.7488 42.5999 22.8047 43.1174 22.7501C44.1451 22.8327 45.1655 22.5197 45.965 21.8765C46.1367 21.6645 46.2551 21.4152 46.3102 21.1492H42.4545V18.8465H49.6698V25.1937H46.6978ZM58.0192 25.3574C63.1473 25.3574 65.3044 23.1728 65.3044 19.761C65.3044 16.2937 62.872 14.2328 58.0192 14.2328C53.2373 14.2328 50.7202 16.471 50.7202 19.761C50.7202 23.4737 53.3607 25.3574 58.0192 25.3574Z" fill="#0D0E14"/><path d="M78.1246 25.1527V14.4373H80.7946V25.1527H78.1246Z" fill="#0D0E14"/><path d="M94.5051 20.6755C93.8284 21.5491 92.6638 21.9482 91.0223 21.9582C90.6761 21.9582 86.0866 21.9446 86.0866 21.9446V25.1528H83.4738V14.4373H91.0232C91.6282 14.3741 92.2403 14.4375 92.8185 14.6232C93.3976 14.809 93.9297 15.113 94.3818 15.5155C94.9784 16.2829 95.2684 17.2398 95.1975 18.2046C95.2582 19.082 95.0143 19.9538 94.5051 20.6755ZM92.3628 17.1818C92.0866 16.7728 91.4909 16.5455 90.4828 16.5455H86.0728V19.8073H90.4542C91.5323 19.8073 92.1004 19.5891 92.3628 19.1655C92.5183 18.867 92.5856 18.5309 92.5561 18.1964C92.5791 17.8475 92.5128 17.4985 92.3628 17.1818Z" fill="#0D0E14"/><path d="M102.897 25.3164C97.9751 25.3164 96.4689 23.4982 96.4689 21.6991H99.2612C99.2612 22.5864 100.491 23.2555 103.021 23.2555C105.536 23.2555 106.2 22.8182 106.2 22.1082C106.2 21.3164 105.703 21.071 103.366 20.8119C102.906 20.771 101.653 20.621 101.183 20.5528C97.8683 20.1837 96.5922 19.2146 96.5922 17.481C96.5922 15.6519 98.4593 14.2737 102.509 14.2737C106.905 14.2737 108.592 15.98 108.592 17.7546H105.83C105.83 16.8537 104.793 16.3346 102.346 16.3346C99.8302 16.3346 99.2916 16.6755 99.2916 17.3446C99.2916 18.041 99.844 18.2591 102.514 18.5728C103.122 18.6555 104.477 18.8055 104.85 18.8455C107.671 19.1319 108.942 20.1419 108.942 21.93C108.937 24.06 107.002 25.3164 102.897 25.3164Z" fill="#0D0E14"/><path d="M116.805 25.3027C113.197 25.3027 110.847 23.8963 110.847 20.9391V14.4373H113.486V20.9754C113.486 22.3273 114.607 23.2273 116.915 23.2273C119.002 23.2273 120.247 22.3818 120.247 20.9754V14.4373H122.86V21.1818C122.86 23.87 120.675 25.3027 116.805 25.3027Z" fill="#0D0E14"/><path d="M137.167 25.1527V18L133.78 25.1527H131.209L127.919 18V25.1527H125.433V14.4373H128.801L132.533 22.6L136.348 14.4373H139.663V25.1527H137.167Z" fill="#0D0E14"/></svg>