<svg viewBox="0 0 151 40" fill="none" xmlns="http://www.w3.org/2000/svg"><path d="M50.5161 26.3636H53.7961V11.3091H50.5161V26.3636Z" fill="#A1AEBF"/><path d="M60.5248 26.6981C63.9549 26.6981 66.2059 24.5445 66.2059 20.739C66.2059 17.059 64.0192 14.759 60.5248 14.759C57.0946 14.759 54.8651 16.9127 54.8651 20.739C54.8651 24.4399 57.0303 26.6981 60.5248 26.6981ZM60.5248 24.1054C59.0455 24.1054 58.2309 22.9136 58.2309 20.739C58.2309 18.5436 59.0241 17.3518 60.5248 17.3518C62.0254 17.3518 62.8401 18.5645 62.8401 20.739C62.8401 22.9345 62.0469 24.1054 60.5248 24.1054Z" fill="#A1AEBF"/><path d="M71.5422 26.3845C72.7856 26.3845 73.8146 25.8827 74.5436 24.8999V26.7818C74.5436 28.3499 73.7503 28.8727 72.5712 28.8727C71.435 28.8727 70.556 28.329 70.4274 27.3254H67.1473C67.5547 30.0645 69.6771 31.319 72.6141 31.319C75.6369 31.319 77.8236 29.7509 77.8236 26.7399V15.1145H74.5436V16.1599C73.8361 15.2399 72.8285 14.759 71.5422 14.759C68.6695 14.759 66.8043 16.8499 66.8043 20.5927C66.8043 24.1681 68.6266 26.3845 71.5422 26.3845ZM72.3354 23.7918C70.9205 23.7918 70.1701 22.6418 70.1701 20.5927C70.1701 18.4809 70.9205 17.3518 72.3354 17.3518C73.7718 17.3518 74.5436 18.5018 74.5436 20.5718C74.5436 22.6627 73.7932 23.7918 72.3354 23.7918Z" fill="#A1AEBF"/><path d="M84.5708 26.6981C88.0009 26.6981 90.2519 24.5445 90.2519 20.739C90.2519 17.059 88.0652 14.759 84.5708 14.759C81.1407 14.759 78.9111 16.9127 78.9111 20.739C78.9111 24.4399 81.0763 26.6981 84.5708 26.6981ZM84.5708 24.1054C83.0915 24.1054 82.2769 22.9136 82.2769 20.739C82.2769 18.5436 83.0701 17.3518 84.5708 17.3518C86.0715 17.3518 86.8861 18.5645 86.8861 20.739C86.8861 22.9345 86.0929 24.1054 84.5708 24.1054Z" fill="#A1AEBF"/><path d="M91.3435 13.9854H94.6239V11.3091H91.3435V13.9854ZM91.3435 26.3636H94.6239V15.1145H91.3435V26.3636Z" fill="#A1AEBF"/><path d="M99.4653 30.9845V25.2345C100.151 26.1963 101.137 26.6981 102.359 26.6981C105.296 26.6981 107.204 24.5445 107.204 20.7181C107.204 17.0381 105.339 14.759 102.359 14.759C101.159 14.759 100.173 15.3027 99.4653 16.2854V15.1145H96.1852V30.9845H99.4653ZM101.673 17.3518C103.067 17.3518 103.839 18.5436 103.839 20.7181C103.839 22.9136 103.088 24.1054 101.673 24.1054C100.237 24.1054 99.4653 22.8927 99.4653 20.7181C99.4653 18.5436 100.216 17.3518 101.673 17.3518Z" fill="#A1AEBF"/><path d="M111.144 18.2299C111.144 17.6236 111.701 17.2054 112.558 17.2054C113.716 17.2054 114.402 17.6863 114.595 18.8363H117.854C117.532 15.9927 115.431 14.759 112.666 14.759C109.579 14.759 108.014 16.5154 108.014 18.3972C108.014 22.9136 115.002 20.969 115.002 23.1436C115.002 23.8336 114.424 24.2727 113.266 24.2727C112.044 24.2727 111.165 23.7081 111.015 22.6627H107.735C108.164 25.4436 110.265 26.6981 113.18 26.6981C116.182 26.6981 118.283 25.1718 118.283 22.9554C118.283 18.5018 111.144 20.4463 111.144 18.2299Z" fill="#A1AEBF"/><path d="M126.364 21.5754C126.364 23.0181 125.549 24.1054 124.284 24.1054C123.127 24.1054 122.569 23.3945 122.569 21.9518V15.1145H119.289V22.6C119.289 25.4018 120.897 26.6981 123.084 26.6981C124.477 26.6981 125.613 26.1127 126.364 24.8581V26.3636H129.644V15.1145H126.364V21.5754Z" fill="#A1AEBF"/><path d="M131.228 26.3636H134.508V19.9027C134.508 18.4599 135.259 17.3518 136.395 17.3518C137.446 17.3518 137.96 18.0836 137.96 19.5054V26.3636H141.219V19.9027C141.219 18.4599 141.99 17.3518 143.127 17.3518C144.177 17.3518 144.67 18.0836 144.67 19.5054V26.3636H147.95V18.8572C147.95 16.0763 146.364 14.759 144.22 14.759C142.784 14.759 141.562 15.3445 140.768 16.6199C140.19 15.3654 139.032 14.759 137.66 14.759C136.331 14.759 135.237 15.3236 134.508 16.5363V15.1145H131.228V26.3636Z" fill="#A1AEBF"/><path d="M38.0766 30.957C41.6298 27.8624 43.8087 23.6862 43.8087 19.091C43.8087 9.55151 34.4191 1.81824 22.8364 1.81824C11.2538 1.81824 1.8642 9.55151 1.8642 19.091C1.8642 28.6304 11.2538 36.3637 22.8364 36.3637C26.1224 36.3637 29.2318 35.7413 32.0005 34.6318C35.2527 36.5897 39.2374 37.9971 43.638 37.7002C41.3132 37.1239 39.3134 34.7891 38.0766 30.957Z" fill="#728095"/><path d="M38.2161 19.0909C38.2161 26.12 31.3304 31.8182 22.8364 31.8182C14.3425 31.8182 7.4568 26.12 7.4568 19.0909C7.4568 12.0618 14.3425 6.36365 22.8364 6.36365C31.3304 6.36365 38.2161 12.0618 38.2161 19.0909Z" fill="#F6E05E"/><path d="M32.6235 19.0909C32.6235 23.6096 28.2417 27.2727 22.8364 27.2727C17.4312 27.2727 13.0494 23.6096 13.0494 19.0909C13.0494 14.5721 17.4312 10.9091 22.8364 10.9091C28.2417 10.9091 32.6235 14.5721 32.6235 19.0909Z" fill="#A1AEBF"/></svg>