<svg viewBox="0 0 151 40" fill="none" xmlns="http://www.w3.org/2000/svg"><g clip-path="url(#clip0_8_150)"><path d="M23.4802 26.3636H31.1117L12.2068 7.27271H4.57526L23.4802 26.3636Z" fill="#728095"/><path d="M15.5558 7.27271L34.7719 25.4545V7.27271H29.5717V13.013L23.5048 7.27271L15.5558 7.27271Z" fill="#4B5567"/><path d="M0.915039 8.18188V26.3637H5.85458V20.6384L11.6173 26.3637H19.216L0.915039 8.18188Z" fill="#A1AEBF"/><path d="M46.5726 23.6285H51.2428V26.3636H43.0073V11.8181H46.5726V23.6285Z" fill="#0D0E14"/><path d="M57.1496 26.3636C56.0283 26.3636 55.0165 26.1234 54.1141 25.6429C53.2253 25.1625 52.5212 24.4762 52.0015 23.5841C51.4957 22.6918 51.2427 21.6486 51.2427 20.4544C51.2427 19.2741 51.5024 18.2377 52.0221 17.3456C52.5417 16.4396 53.2527 15.7464 54.1551 15.266C55.0576 14.7856 56.0693 14.5454 57.1906 14.5454C58.3118 14.5454 59.3235 14.7856 60.226 15.266C61.1284 15.7464 61.8394 16.4396 62.359 17.3456C62.8787 18.2377 63.1384 19.2741 63.1384 20.4544C63.1384 21.6349 62.8718 22.6781 62.3385 23.5841C61.819 24.4762 61.101 25.1625 60.185 25.6429C59.2826 26.1234 58.2707 26.3636 57.1496 26.3636ZM57.1496 23.3164C57.8195 23.3164 58.387 23.0693 58.8518 22.5752C59.3304 22.081 59.5697 21.3742 59.5697 20.4544C59.5697 19.5348 59.3372 18.828 58.8724 18.3338C58.4211 17.8397 57.8605 17.5926 57.1906 17.5926C56.5069 17.5926 55.9394 17.8397 55.4883 18.3338C55.037 18.8142 54.8114 19.5212 54.8114 20.4544C54.8114 21.3742 55.0302 22.081 55.4677 22.5752C55.919 23.0693 56.4796 23.3164 57.1496 23.3164Z" fill="#0D0E14"/><path d="M68.1066 14.5454C68.901 14.5454 69.5945 14.7097 70.1869 15.0383C70.7928 15.3669 71.2573 15.7983 71.5804 16.3322V14.7097H75.034V26.1496C75.034 27.2039 74.8253 28.1554 74.4079 29.0043C74.004 29.8669 73.3779 30.5516 72.5296 31.0582C71.6949 31.5648 70.6514 31.8181 69.3992 31.8181C67.7296 31.8181 66.3765 31.4142 65.3398 30.6063C64.303 29.8122 63.7106 28.7305 63.5625 27.3613H66.9757C67.0834 27.7995 67.3392 28.1417 67.7431 28.3882C68.1471 28.6483 68.6452 28.7784 69.2377 28.7784C69.9513 28.7784 70.5167 28.5663 70.9342 28.1417C71.365 27.731 71.5804 27.0669 71.5804 26.1496V24.527C71.2438 25.061 70.7793 25.4991 70.1869 25.8415C69.5945 26.17 68.901 26.3344 68.1066 26.3344C67.1777 26.3344 66.3361 26.0948 65.5822 25.6155C64.8281 25.1226 64.229 24.4312 63.7847 23.5412C63.3538 22.6375 63.1384 21.5969 63.1384 20.4194C63.1384 19.2418 63.3538 18.2081 63.7847 17.3181C64.229 16.4281 64.8281 15.7435 65.5822 15.2642C66.3361 14.785 67.1777 14.5454 68.1066 14.5454ZM71.5804 20.4399C71.5804 19.5636 71.3381 18.8722 70.8534 18.3655C70.3822 17.8589 69.8031 17.6056 69.1165 17.6056C68.4298 17.6056 67.8442 17.8589 67.3595 18.3655C66.8881 18.8584 66.6525 19.5431 66.6525 20.4194C66.6525 21.2957 66.8881 21.9939 67.3595 22.5143C67.8442 23.0209 68.4298 23.2741 69.1165 23.2741C69.8031 23.2741 70.3822 23.0209 70.8534 22.5143C71.3381 22.0077 71.5804 21.3162 71.5804 20.4399Z" fill="#0D0E14"/><path d="M82.3165 26.3636C81.2816 26.3636 80.3476 26.1234 79.5146 25.6429C78.6942 25.1625 78.0442 24.4762 77.5647 23.5841C77.0976 22.6918 76.8641 21.6486 76.8641 20.4544C76.8641 19.2741 77.104 18.2377 77.5835 17.3456C78.0632 16.4396 78.7194 15.7464 79.5525 15.266C80.3855 14.7856 81.3195 14.5454 82.3544 14.5454C83.3894 14.5454 84.3234 14.7856 85.1564 15.266C85.9893 15.7464 86.6457 16.4396 87.1252 17.3456C87.6049 18.2377 87.8447 19.2741 87.8447 20.4544C87.8447 21.6349 87.5986 22.6781 87.1064 23.5841C86.6267 24.4762 85.9641 25.1625 85.1185 25.6429C84.2854 26.1234 83.3515 26.3636 82.3165 26.3636ZM82.3165 23.3164C82.935 23.3164 83.4588 23.0693 83.8879 22.5752C84.3297 22.081 84.5506 21.3742 84.5506 20.4544C84.5506 19.5348 84.336 18.828 83.9068 18.3338C83.4903 17.8397 82.9729 17.5926 82.3544 17.5926C81.7234 17.5926 81.1996 17.8397 80.7831 18.3338C80.3665 18.8142 80.1583 19.5212 80.1583 20.4544C80.1583 21.3742 80.3603 22.081 80.7641 22.5752C81.1806 23.0693 81.6981 23.3164 82.3165 23.3164Z" fill="#0D0E14"/><path d="M91.0587 13.7794C90.3825 13.7794 89.8266 13.6023 89.3908 13.2482C88.9701 12.8805 88.7598 12.4311 88.7598 11.8999C88.7598 11.3551 88.9701 10.9057 89.3908 10.5516C89.8266 10.1839 90.3825 10 91.0587 10C91.7198 10 92.2607 10.1839 92.6814 10.5516C93.1171 10.9057 93.335 11.3551 93.335 11.8999C93.335 12.4311 93.1171 12.8805 92.6814 13.2482C92.2607 13.6023 91.7198 13.7794 91.0587 13.7794ZM92.9744 14.9643V26.3636H89.1203V14.9643H92.9744Z" fill="#0D0E14"/><path d="M98.3528 16.3516C98.664 15.8118 99.0925 15.3758 99.6391 15.0437C100.186 14.7115 100.826 14.5454 101.56 14.5454C102.417 14.5454 103.194 14.7876 103.89 15.272C104.586 15.7564 105.133 16.4485 105.53 17.3481C105.941 18.2477 106.146 19.2926 106.146 20.4829C106.146 21.6732 105.941 22.7251 105.53 23.6385C105.133 24.5381 104.586 25.237 103.89 25.7353C103.194 26.2197 102.417 26.4619 101.56 26.4619C100.839 26.4619 100.198 26.2958 99.6391 25.9637C99.0925 25.6315 98.664 25.2024 98.3528 24.6765V31.8181H95.1651V14.7115H98.3528V16.3516ZM102.902 20.4829C102.902 19.5971 102.678 18.9051 102.231 18.4068C101.796 17.8947 101.255 17.6387 100.609 17.6387C99.9747 17.6387 99.4344 17.8947 98.9869 18.4068C98.5522 18.919 98.3348 19.6179 98.3348 20.5036C98.3348 21.3894 98.5522 22.0884 98.9869 22.6005C99.4344 23.1126 99.9747 23.3686 100.609 23.3686C101.243 23.3686 101.783 23.1126 102.231 22.6005C102.678 22.0745 102.902 21.3687 102.902 20.4829Z" fill="#0D0E14"/><path d="M112.416 26.3636C111.402 26.3636 110.499 26.192 109.708 25.8488C108.915 25.5057 108.29 25.039 107.832 24.4488C107.373 23.8449 107.116 23.1722 107.061 22.431H110.583C110.624 22.8291 110.812 23.1517 111.146 23.3988C111.478 23.6458 111.889 23.7694 112.375 23.7694C112.82 23.7694 113.159 23.687 113.396 23.5223C113.646 23.3439 113.771 23.1173 113.771 22.8429C113.771 22.5134 113.597 22.2732 113.25 22.1222C112.902 21.9575 112.34 21.7791 111.562 21.5869C110.728 21.3947 110.033 21.1957 109.478 20.9898C108.922 20.7702 108.443 20.4339 108.04 19.9809C107.638 19.5143 107.436 18.8897 107.436 18.1073C107.436 17.4485 107.616 16.8514 107.977 16.316C108.352 15.767 108.895 15.3347 109.603 15.019C110.326 14.7033 111.18 14.5454 112.166 14.5454C113.625 14.5454 114.772 14.9023 115.605 15.616C116.453 16.3298 116.939 17.2769 117.064 18.4574H113.771C113.715 18.0593 113.534 17.7436 113.229 17.5102C112.938 17.2769 112.548 17.1603 112.062 17.1603C111.646 17.1603 111.326 17.2425 111.103 17.4073C110.881 17.5583 110.771 17.7711 110.771 18.0455C110.771 18.375 110.944 18.622 111.291 18.7867C111.652 18.9515 112.208 19.1162 112.959 19.2809C113.82 19.5005 114.522 19.7201 115.063 19.9398C115.605 20.1456 116.078 20.4888 116.48 20.9692C116.897 21.4359 117.112 22.0673 117.126 22.8634C117.126 23.536 116.932 24.14 116.542 24.6753C116.167 25.1969 115.619 25.6086 114.897 25.9106C114.188 26.2126 113.361 26.3636 112.416 26.3636Z" fill="#0D0E14"/><path d="M129.022 15.4546V26.2476H125.645V24.7777C125.302 25.2548 124.835 25.6416 124.243 25.9382C123.663 26.2219 123.018 26.3637 122.307 26.3637C121.465 26.3637 120.72 26.1832 120.075 25.8222C119.43 25.4482 118.93 24.913 118.575 24.2167C118.219 23.5203 118.041 22.7016 118.041 21.7602V15.4546H121.399V21.3153C121.399 22.0375 121.59 22.5984 121.971 22.9981C122.353 23.3979 122.866 23.5977 123.512 23.5977C124.17 23.5977 124.69 23.3979 125.072 22.9981C125.454 22.5984 125.645 22.0375 125.645 21.3153V15.4546H129.022Z" fill="#0D0E14"/><path d="M145.422 15.4546C146.841 15.4546 147.967 15.8608 148.799 16.6731C149.645 17.4855 150.068 18.6139 150.068 20.0581V26.3637H146.588V20.5029C146.588 19.8066 146.391 19.2715 145.995 18.8975C145.613 18.5107 145.081 18.3173 144.399 18.3173C143.717 18.3173 143.178 18.5107 142.782 18.8975C142.401 19.2715 142.21 19.8066 142.21 20.5029V26.3637H138.73V20.5029C138.73 19.8066 138.533 19.2715 138.137 18.8975C137.755 18.5107 137.223 18.3173 136.541 18.3173C135.858 18.3173 135.32 18.5107 134.924 18.8975C134.543 19.2715 134.351 19.8066 134.351 20.5029V26.3637H130.852V15.5706H134.351V16.9246C134.706 16.4733 135.169 16.1187 135.743 15.8608C136.316 15.59 136.964 15.4546 137.686 15.4546C138.546 15.4546 139.31 15.6287 139.979 15.9768C140.661 16.325 141.193 16.8215 141.575 17.4662C141.971 16.873 142.51 16.3895 143.192 16.0155C143.874 15.6416 144.618 15.4546 145.422 15.4546Z" fill="#0D0E14"/></g><defs><clipPath id="clip0_8_150"><rect width="150.068" height="40" fill="white"/></clipPath></defs></svg>