<svg viewBox="0 0 151 40" fill="none" xmlns="http://www.w3.org/2000/svg"><path d="M74.7309 26.288H69.676V12.8619H74.7309V26.288ZM70.1696 25.7975H74.2373V13.3524H70.1696V25.7975ZM81.7644 26.288H76.8111V12.8619H87.1599C88.6424 12.7427 90.1188 13.1562 91.3203 14.0272C91.8376 14.4973 92.2385 15.0799 92.4917 15.7293C92.7451 16.3787 92.8439 17.0775 92.7805 17.7712C92.8544 18.9697 92.4704 20.1519 91.7054 21.0816C90.8 22.1134 89.2934 22.6451 87.228 22.6637C86.7077 22.6774 82.8089 22.6637 81.7673 22.6637L81.7644 26.288ZM77.3018 25.7975H81.2707V22.1684H81.5185C81.5689 22.1684 86.6307 22.1841 87.2162 22.1684C89.1404 22.1517 90.5236 21.6779 91.3322 20.753C92.0132 19.9118 92.3515 18.8473 92.28 17.7702C92.3407 17.1487 92.2565 16.5216 92.0339 15.9377C91.8113 15.3537 91.4564 14.8285 90.9965 14.4029C89.8824 13.6085 88.5194 13.2356 87.153 13.3514H77.3048L77.3018 25.7975ZM86.1114 19.6475H81.2371V15.9929H86.144C86.4918 15.9451 86.8461 15.9854 87.174 16.1101C87.502 16.2348 87.7929 16.4397 88.0198 16.7059C88.2257 17.0462 88.3227 17.4406 88.2982 17.8369C88.3167 18.2048 88.2367 18.571 88.0662 18.8982C87.8321 19.1786 87.5293 19.3944 87.1869 19.525C86.8447 19.6555 86.4742 19.6964 86.1114 19.6436V19.6475ZM81.7308 19.1571H86.1114C86.921 19.1571 87.4225 18.9894 87.6446 18.6441C87.767 18.3932 87.8224 18.1152 87.8056 17.8369C87.8272 17.5446 87.7634 17.2524 87.6219 16.9953L87.616 16.9865C87.381 16.6432 86.9141 16.4833 86.144 16.4833H81.7308V19.1571ZM101.79 26.4861C97.3566 26.4861 94.7107 25.3925 93.7027 23.1433C93.5377 22.7089 93.4257 22.2564 93.369 21.7956L93.3255 21.5131H98.5996L98.6342 21.7191C98.6747 21.9282 98.7645 22.1251 98.8948 22.2939C99.1031 22.544 99.7982 22.9638 102.104 22.9638C104.877 22.9638 104.877 22.4803 104.877 22.2203C104.877 21.7819 104.556 21.6318 102.295 21.3925L101.866 21.3523C101.015 21.2728 99.9384 21.1718 99.4467 21.1296C95.3001 20.7569 93.4489 19.4769 93.4489 16.9806C93.4489 14.3587 96.5994 12.6648 101.476 12.6648C105.453 12.6648 108.016 13.7065 109.092 15.7633C109.346 16.2418 109.518 16.7599 109.598 17.2954L109.633 17.5711H104.353L104.331 17.3494C104.31 17.1761 104.236 17.0136 104.118 16.8845C103.92 16.6216 103.296 16.1871 101.359 16.1871C98.9807 16.1871 98.6529 16.4892 98.6529 16.8148C98.6529 17.2493 99.4043 17.4033 101.812 17.6593C102.816 17.7408 104.431 17.9055 104.983 17.9722C108.46 18.3469 110.011 19.5956 110.011 22.0222C110.012 24.0575 108.585 26.4861 101.79 26.4861ZM93.9021 22.0036C93.9516 22.3271 94.0367 22.6441 94.1558 22.9491C95.074 24.9981 97.5718 25.9957 101.79 25.9957C105.316 25.9957 109.521 25.3091 109.521 22.0222C109.521 19.8712 108.149 18.806 104.931 18.4597C104.378 18.393 102.774 18.2292 101.772 18.1468C99.2048 17.8702 98.1613 17.7231 98.1613 16.8148C98.1613 15.8752 99.2858 15.6966 101.361 15.6966C103.001 15.6966 104.06 15.9909 104.51 16.5843C104.632 16.7305 104.725 16.8991 104.782 17.0806H109.061C108.975 16.7013 108.839 16.3349 108.656 15.9909C107.669 14.1086 105.257 13.1552 101.478 13.1552C96.9015 13.1552 93.9445 14.6569 93.9445 16.9806C93.9445 19.1973 95.6042 20.292 99.4921 20.6412C99.9858 20.6833 101.061 20.7844 101.914 20.8648L102.346 20.905C104.446 21.1247 105.372 21.262 105.372 22.2203C105.372 23.2522 104.175 23.4543 102.106 23.4543C100.193 23.4543 98.9847 23.1688 98.5177 22.6068C98.3737 22.4276 98.2651 22.2229 98.1978 22.0036H93.9021ZM119.39 26.4694C114.236 26.4694 111.393 24.3988 111.393 20.6382V12.8619H116.381V20.6382C116.381 21.928 117.543 22.6676 119.568 22.6676C121.503 22.6676 122.704 21.8957 122.704 20.6549V12.8619H127.641V21.0502C127.646 24.494 124.635 26.4694 119.387 26.4694H119.39ZM111.887 13.3524V20.6382C111.887 25.2855 116.584 25.979 119.39 25.979C122.291 25.979 127.155 25.3385 127.155 21.0502V13.3524H123.206V20.6549C123.206 22.1752 121.78 23.158 119.576 23.158C117.271 23.158 115.895 22.2164 115.895 20.6382V13.3524H111.887ZM148.559 26.288H143.852V20.2263L141.182 26.288H137.076L134.434 20.238V26.288H129.71V12.8619H135.924L139.153 20.2645L142.537 12.8619H148.565L148.559 26.288ZM144.346 25.7975H148.066V13.3524H142.851L139.137 21.4729L135.596 13.3524H130.2V25.7975H133.937V17.8781L137.392 25.8005H140.848L144.34 17.8898L144.346 25.7975ZM5.97704 13.1072H1.48092V26.0428H13.905V22.599H5.97704V13.1072ZM22.9801 12.8129C17.241 12.8129 14.2229 15.5152 14.2229 19.4828C14.2229 23.9653 17.3911 26.2389 22.9801 26.2389C29.1329 26.2389 31.7206 23.6024 31.7206 19.4828C31.7206 15.2994 28.8012 12.8109 22.9801 12.8109V12.8129ZM22.9634 16.1743C23.354 16.1725 23.7445 16.1951 24.1323 16.242L19.106 21.2356C18.8682 20.7011 18.7522 20.1209 18.7664 19.5367C18.7664 17.5073 19.7951 16.1724 22.9634 16.1724V16.1743ZM22.9801 22.9305C22.6037 22.9322 22.2275 22.9112 21.8536 22.8677L26.8888 17.8653C27.1178 18.391 27.2274 18.9603 27.2097 19.5328C27.2097 21.5073 26.2619 22.9285 22.9801 22.9285V22.9305ZM40.6289 21.1649H45.2564C45.1882 21.484 45.0463 21.7829 44.8417 22.0379C43.8823 22.8144 42.658 23.1922 41.4247 23.0923C40.8039 23.1583 40.1762 23.091 39.5839 22.8948C38.9916 22.6987 38.4486 22.3784 37.9919 21.9555C37.524 21.2737 37.3018 20.4549 37.361 19.6319C37.2853 18.7694 37.527 17.909 38.0412 17.2101C38.6879 16.4843 39.7828 16.1714 41.3921 16.1714C42.416 16.0871 43.4387 16.3484 44.2947 16.9129C44.5646 17.1258 44.7663 17.4121 44.8753 17.7368H49.167C49.1358 17.2017 49.0063 16.6768 48.7849 16.188C47.7572 14.1116 45.3679 12.8757 41.3052 12.8757C37.7717 12.8757 35.4002 13.9468 34.0901 15.5623C33.2248 16.7289 32.7807 18.1512 32.8293 19.5995C32.7734 21.0806 33.2061 22.5392 34.0615 23.7534C35.3558 25.4209 37.6611 26.2409 40.4315 26.2409C42.2733 26.3685 44.1025 25.856 45.6059 24.7912L45.7224 26.0428H49.2875V18.3803H40.6289V21.1649ZM59.4062 12.81C53.6681 12.81 50.6489 15.5122 50.6489 19.4798C50.6489 23.9624 53.8162 26.236 59.4062 26.236C65.56 26.236 68.1477 23.5994 68.1477 19.4798C68.1477 15.2994 65.2282 12.8109 59.4062 12.8109V12.81ZM59.3904 16.1714C59.7708 16.1703 60.1509 16.1919 60.5287 16.2361L55.5222 21.213C55.2918 20.6844 55.1796 20.1126 55.1934 19.5367C55.1895 17.5073 56.2222 16.1724 59.3904 16.1724V16.1714ZM59.4062 22.9275C59.0198 22.9292 58.6336 22.9068 58.2501 22.8608L63.302 17.8408C63.5397 18.3734 63.6534 18.9524 63.6348 19.5347C63.6367 21.5073 62.6929 22.9285 59.4062 22.9285V22.9275Z" fill="#0D0E14"/></svg>