<svg viewBox="0 0 151 40" fill="none" xmlns="http://www.w3.org/2000/svg"><g clip-path="url(#clip0_8_133)"><path d="M59.3094 11.5288H56.1658V25.6212H64.8684V22.8598H59.3094V11.5288Z" fill="#0D0E14"/><path d="M65.1686 20.8411C65.1686 23.85 67.2005 25.8496 70.2674 25.8496C73.3152 25.8496 75.3471 23.85 75.3471 20.8411C75.3471 17.8321 73.3152 15.8135 70.2674 15.8135C67.2005 15.8135 65.1686 17.8321 65.1686 20.8411ZM68.1397 20.822C68.1397 19.3938 68.9832 18.4416 70.2674 18.4416C71.5326 18.4416 72.376 19.3938 72.376 20.822C72.376 22.2694 71.5326 23.2216 70.2674 23.2216C68.9832 23.2216 68.1397 22.2694 68.1397 20.822Z" fill="#0D0E14"/><path d="M75.822 20.6889C75.822 23.5645 77.7005 25.5069 80.3649 25.5069C81.6493 25.5069 82.761 25.0499 83.3169 24.3072V25.6212C83.3169 26.9352 82.4926 27.8112 81.0358 27.8112C79.7323 27.8112 78.8314 27.2018 78.7739 26.1164H75.7836C76.052 28.7254 78.0839 30.4773 80.8633 30.4773C84.1411 30.4773 86.2113 28.3635 86.2113 25.0118V16.0994H83.5469L83.3936 17.0705C82.8568 16.2898 81.7259 15.7756 80.4225 15.7756C77.7388 15.7756 75.822 17.7752 75.822 20.6889ZM78.8123 20.6127C78.8123 19.2415 79.7323 18.3274 80.9016 18.3274C82.2626 18.3274 83.2594 19.2225 83.2594 20.6127C83.2594 22.0029 82.2817 22.9551 80.9208 22.9551C79.7516 22.9551 78.8123 22.0029 78.8123 20.6127Z" fill="#0D0E14"/><path d="M87.0715 20.8411C87.0715 23.85 89.1035 25.8496 92.1707 25.8496C95.2186 25.8496 97.2502 23.85 97.2502 20.8411C97.2502 17.8321 95.2186 15.8135 92.1707 15.8135C89.1035 15.8135 87.0715 17.8321 87.0715 20.8411ZM90.0425 20.822C90.0425 19.3938 90.8859 18.4416 92.1707 18.4416C93.4353 18.4416 94.2787 19.3938 94.2787 20.822C94.2787 22.2694 93.4353 23.2216 92.1707 23.2216C90.8859 23.2216 90.0425 22.2694 90.0425 20.822Z" fill="#0D0E14"/><path d="M99.7953 14.6139C100.715 14.6139 101.463 13.8712 101.463 12.9381C101.463 12.0049 100.715 11.2812 99.7953 11.2812C98.8562 11.2812 98.1085 12.0049 98.1085 12.9381C98.1085 13.8712 98.8562 14.6139 99.7953 14.6139ZM98.2998 25.6212H101.271V16.0993H98.2998V25.6212Z" fill="#0D0E14"/><path d="M103.001 30.1917H105.915V24.6691C106.47 25.3927 107.736 25.8879 109.058 25.8879C111.914 25.8879 113.639 23.7169 113.563 20.708C113.486 17.6419 111.703 15.7947 109.039 15.7947C107.678 15.7947 106.394 16.385 105.857 17.2611L105.703 16.0994H103.001V30.1917ZM105.972 20.8603C105.972 19.4321 106.93 18.4799 108.311 18.4799C109.709 18.4799 110.591 19.4511 110.591 20.8603C110.591 22.2696 109.709 23.2408 108.311 23.2408C106.93 23.2408 105.972 22.2886 105.972 20.8603Z" fill="#0D0E14"/><path d="M113.877 22.6123C113.953 24.5358 115.487 25.8688 117.903 25.8688C120.222 25.8688 121.832 24.65 121.832 22.6885C121.832 21.2793 120.989 20.3461 119.416 19.9652L117.711 19.5463C117.098 19.394 116.714 19.2416 116.714 18.7464C116.714 18.2513 117.116 17.9275 117.711 17.9275C118.382 17.9275 118.822 18.3656 118.804 19.013H121.468C121.391 17.0325 119.877 15.7947 117.768 15.7947C115.641 15.7947 114.05 17.0516 114.05 18.9559C114.05 20.2318 114.759 21.2793 116.656 21.7744L118.343 22.2124C118.842 22.3457 119.052 22.5742 119.052 22.8979C119.052 23.3741 118.612 23.6788 117.864 23.6788C117.001 23.6788 116.541 23.2789 116.541 22.6123H113.877Z" fill="#0D0E14"/><path d="M126.35 25.8687C127.52 25.8687 128.689 25.3355 129.283 24.5547L129.475 25.6212H132.255V16.0994H129.302V21.0508C129.302 22.479 128.881 23.2597 127.52 23.2597C126.465 23.2597 125.775 22.7837 125.775 21.0127V16.0994H122.823V22.079C122.823 24.3453 124.089 25.8687 126.35 25.8687Z" fill="#0D0E14"/><path d="M136.936 25.6212V20.4223C136.936 18.8226 137.798 18.3655 138.642 18.3655C139.581 18.3655 140.194 18.9369 140.194 20.1176V25.6212H143.108V20.4223C143.108 18.8036 143.951 18.3465 144.795 18.3465C145.734 18.3465 146.366 18.9178 146.366 20.1176V25.6212H149.242V19.3939C149.242 17.2229 148.092 15.7756 145.619 15.7756C144.239 15.7756 143.108 16.4421 142.609 17.4705C142.035 16.4421 141.038 15.7756 139.447 15.7756C138.393 15.7756 137.415 16.2517 136.84 17.0134L136.725 16.0994H133.964V25.6212H136.936Z" fill="#0D0E14"/><path d="M0 20.0001C0 12.2957 6.28657 6.05005 14.0415 6.05005H32.4709C40.2258 6.05005 46.5123 12.2957 46.5123 20.0001V33.9501H14.0415C6.28657 33.9501 0 27.7045 0 20.0001Z" fill="#0D0E14"/><path d="M32.4709 11.2812H14.0415C9.19467 11.2812 5.26556 15.1848 5.26556 20C5.26556 24.8153 9.19467 28.7188 14.0415 28.7188H32.4709C37.3177 28.7188 41.2468 24.8153 41.2468 20C41.2468 15.1848 37.3177 11.2812 32.4709 11.2812Z" fill="#4B5567"/><path d="M14.0415 24.3594C16.4649 24.3594 18.4294 22.4076 18.4294 20C18.4294 17.5924 16.4649 15.6406 14.0415 15.6406C11.6181 15.6406 9.6535 17.5924 9.6535 20C9.6535 22.4076 11.6181 24.3594 14.0415 24.3594Z" fill="#0D0E14"/><path d="M12.2863 19.128C12.771 19.128 13.1639 18.7377 13.1639 18.2562C13.1639 17.7746 12.771 17.3843 12.2863 17.3843C11.8017 17.3843 11.4088 17.7746 11.4088 18.2562C11.4088 18.7377 11.8017 19.128 12.2863 19.128Z" fill="white"/><path d="M33.3485 24.3594C35.7719 24.3594 37.7364 22.4076 37.7364 20C37.7364 17.5924 35.7719 15.6406 33.3485 15.6406C30.9251 15.6406 28.9605 17.5924 28.9605 20C28.9605 22.4076 30.9251 24.3594 33.3485 24.3594Z" fill="#0D0E14"/><path d="M31.5933 19.128C32.078 19.128 32.4709 18.7377 32.4709 18.2562C32.4709 17.7746 32.078 17.3843 31.5933 17.3843C31.1086 17.3843 30.7157 17.7746 30.7157 18.2562C30.7157 18.7377 31.1086 19.128 31.5933 19.128Z" fill="white"/></g><defs><clipPath id="clip0_8_133"><rect width="150.068" height="40" fill="white"/></clipPath></defs></svg>