<svg viewBox="0 0 151 40" fill="none" xmlns="http://www.w3.org/2000/svg"><g clip-path="url(#clip0_8_119)"><path d="M36.1716 7.21045H39.9183V27.5139H46.0833V30.8979H36.1716V7.21045Z" fill="#726BEA"/><path d="M53.1627 31.2362C51.3234 31.2362 49.9156 30.7174 48.9391 29.6796C47.9627 28.6419 47.4745 27.1756 47.4745 25.2805V12.8278C47.4745 10.9328 47.9627 9.4664 48.9391 8.42867C49.9156 7.39094 51.3234 6.87207 53.1627 6.87207C55.002 6.87207 56.4098 7.39094 57.3863 8.42867C58.3626 9.4664 58.8508 10.9328 58.8508 12.8278V25.2805C58.8508 27.1756 58.3626 28.6419 57.3863 29.6796C56.4098 30.7174 55.002 31.2362 53.1627 31.2362ZM53.1627 27.8523C54.457 27.8523 55.1042 27.074 55.1042 25.5174V12.5909C55.1042 11.0343 54.457 10.256 53.1627 10.256C51.8684 10.256 51.2212 11.0343 51.2212 12.5909V25.5174C51.2212 27.074 51.8684 27.8523 53.1627 27.8523Z" fill="#726BEA"/><path d="M66.6981 31.2362C64.8816 31.2362 63.4964 30.7287 62.5426 29.7135C61.589 28.6758 61.1121 27.1981 61.1121 25.2805V12.8278C61.1121 10.9102 61.589 9.44384 62.5426 8.42867C63.4964 7.39094 64.8816 6.87207 66.6981 6.87207C68.5147 6.87207 69.8998 7.39094 70.8535 8.42867C71.8073 9.44384 72.2841 10.9102 72.2841 12.8278V14.8581H68.7418V12.5909C68.7418 11.0343 68.0946 10.256 66.8003 10.256C65.506 10.256 64.8588 11.0343 64.8588 12.5909V25.5513C64.8588 27.0854 65.506 27.8523 66.8003 27.8523C68.0946 27.8523 68.7418 27.0854 68.7418 25.5513V20.9153H66.8684V17.5314H72.2841V25.2805C72.2841 27.1981 71.8073 28.6758 70.8535 29.7135C69.8998 30.7287 68.5147 31.2362 66.6981 31.2362Z" fill="#726BEA"/><path d="M80.1054 31.2362C78.2661 31.2362 76.8583 30.7174 75.8819 29.6796C74.9054 28.6419 74.4172 27.1756 74.4172 25.2805V12.8278C74.4172 10.9328 74.9054 9.4664 75.8819 8.42867C76.8583 7.39094 78.2661 6.87207 80.1054 6.87207C81.9447 6.87207 83.3526 7.39094 84.3289 8.42867C85.3054 9.4664 85.7936 10.9328 85.7936 12.8278V25.2805C85.7936 27.1756 85.3054 28.6419 84.3289 29.6796C83.3526 30.7174 81.9447 31.2362 80.1054 31.2362ZM80.1054 27.8523C81.3997 27.8523 82.0469 27.074 82.0469 25.5174V12.5909C82.0469 11.0343 81.3997 10.256 80.1054 10.256C78.8111 10.256 78.164 11.0343 78.164 12.5909V25.5174C78.164 27.074 78.8111 27.8523 80.1054 27.8523Z" fill="#726BEA"/><path d="M88.3345 7.21045H92.0812V30.8979H88.3345V7.21045Z" fill="#0D0E14"/><path d="M94.8871 7.21045H100.405C102.267 7.21045 103.663 7.70675 104.595 8.69937C105.526 9.69198 105.991 11.1471 105.991 13.0646V15.3995C105.991 17.3171 105.526 18.7721 104.595 19.7648C103.663 20.7574 102.267 21.2536 100.405 21.2536H98.6341V30.8979H94.8871V7.21045ZM100.405 17.8698C101.018 17.8698 101.472 17.7005 101.768 17.3622C102.086 17.0238 102.244 16.4485 102.244 15.6364V12.8277C102.244 12.0156 102.086 11.4403 101.768 11.1019C101.472 10.7636 101.018 10.5944 100.405 10.5944H98.6341V17.8698H100.405Z" fill="#0D0E14"/><path d="M113.029 31.2362C111.214 31.2362 109.839 30.7287 108.908 29.7135C107.978 28.6758 107.512 27.1981 107.512 25.2805V23.927H111.054V25.5513C111.054 27.0854 111.701 27.8523 112.996 27.8523C113.631 27.8523 114.108 27.6718 114.426 27.3109C114.766 26.9274 114.937 26.3183 114.937 25.4836C114.937 24.491 114.71 23.6224 114.256 22.878C113.802 22.1109 112.962 21.1973 111.735 20.137C110.191 18.7834 109.113 17.5652 108.499 16.4824C107.887 15.377 107.58 14.1362 107.58 12.7601C107.58 10.8876 108.056 9.44384 109.01 8.42867C109.964 7.39094 111.35 6.87207 113.166 6.87207C114.96 6.87207 116.311 7.39094 117.219 8.42867C118.15 9.44384 118.616 10.9102 118.616 12.8278V13.8091H115.073V12.5909C115.073 11.7787 114.915 11.1922 114.597 10.8312C114.279 10.4477 113.813 10.256 113.2 10.256C111.951 10.256 111.327 11.0117 111.327 12.5232C111.327 13.3805 111.554 14.1813 112.008 14.9258C112.484 15.6702 113.336 16.5726 114.563 17.6329C116.129 18.9865 117.208 20.216 117.799 21.3214C118.389 22.4268 118.684 23.7239 118.684 25.2129C118.684 27.153 118.195 28.6419 117.219 29.6796C116.265 30.7174 114.869 31.2362 113.029 31.2362Z" fill="#0D0E14"/><path d="M126.282 31.2362C124.465 31.2362 123.08 30.7287 122.126 29.7134C121.172 28.6758 120.696 27.1981 120.696 25.2805V7.21045H124.443V25.5513C124.443 26.3634 124.601 26.9499 124.919 27.3109C125.26 27.6718 125.737 27.8523 126.35 27.8523C126.963 27.8523 127.428 27.6718 127.746 27.3109C128.087 26.9499 128.258 26.3634 128.258 25.5513V7.21045H131.868V25.2805C131.868 27.1981 131.391 28.6758 130.437 29.7134C129.483 30.7287 128.098 31.2362 126.282 31.2362Z" fill="#0D0E14"/><path d="M134.536 7.21045H139.884L142.268 24.1638H142.336L144.721 7.21045H150.068V30.8979H146.525V12.9631H146.458L143.732 30.8979H140.599L137.874 12.9631H137.806V30.8979H134.536V7.21045Z" fill="#0D0E14"/><path d="M0 30.8979C4.60941 30.8979 8.34604 27.1855 8.34604 22.6062C8.34604 18.0268 4.60941 14.3145 0 14.3145V20.1186C1.38281 20.1186 2.5038 21.2323 2.5038 22.6062C2.5038 23.98 1.38281 25.0937 0 25.0937V30.8979Z" fill="#726BEA"/><path d="M27.8201 17.0784C26.3939 16.6295 24.8751 16.3873 23.2993 16.3873C15.0408 16.3873 8.34601 23.0386 8.34601 31.2433C8.34601 32.0668 8.41346 32.8747 8.54314 33.6617H17.8341C17.5025 32.923 17.3181 32.1046 17.3181 31.2433C17.3181 27.9614 19.9959 25.3009 23.2993 25.3009C25.1048 25.3009 26.7234 26.0957 27.8201 27.3522V17.0784Z" fill="#A5B4FC"/><path d="M1.46729 6.02271C2.15923 12.2414 7.46606 17.0784 13.91 17.0784C20.3538 17.0784 25.6607 12.2414 26.3526 6.02271H17.3996C16.8469 7.39928 15.4927 8.37201 13.91 8.37201C12.3271 8.37201 10.9731 7.39928 10.4202 6.02271H1.46729Z" fill="#0D0E14"/></g><defs><clipPath id="clip0_8_119"><rect width="150.068" height="40" fill="white"/></clipPath></defs></svg>