<svg viewBox="0 0 151 40" fill="none" xmlns="http://www.w3.org/2000/svg"><g clip-path="url(#clip0_8_184)"><path d="M10.1145 28.5089C7.22334 31.3812 2.32682 31.3698 0.959354 27.5416C0.691624 26.7921 0.477564 26.0214 0.320123 25.2351C-0.322704 22.0244 0.00721847 18.6965 1.26817 15.672C2.52912 12.6477 4.66446 10.0627 7.40417 8.24401C10.1439 6.42532 13.365 5.45459 16.66 5.45459C19.955 5.45459 23.176 6.42532 25.9157 8.24401C28.6554 10.0627 30.7908 12.6477 32.0517 15.6721C33.3127 18.6965 33.6425 22.0244 32.9998 25.2351C32.8423 26.0214 32.6283 26.7921 32.3605 27.5416C30.993 31.3698 26.0965 31.3812 23.2054 28.5089L18.7424 24.075C18.316 23.6514 18.3601 22.9528 18.4777 22.3652C18.5492 22.0081 18.5125 21.6379 18.3722 21.3014C18.2319 20.9649 17.9944 20.6773 17.6896 20.4751C17.3848 20.2728 17.0265 20.1648 16.66 20.1648C16.2934 20.1648 15.9351 20.2728 15.6303 20.4751C15.3254 20.6773 15.0879 20.9649 14.9476 21.3014C14.8074 21.6379 14.7707 22.0081 14.8422 22.3652C14.9598 22.9528 15.0038 23.6514 14.5774 24.075L10.1145 28.5089Z" fill="#728095"/><path d="M46.874 24.535H51.3521V27.1568H43.4553V13.2139H46.874V24.535Z" fill="#0D0E14"/><path d="M57.461 27.3157C56.3681 27.3157 55.3818 27.084 54.5021 26.6205C53.6359 26.1571 52.9494 25.495 52.443 24.6344C51.9499 23.7737 51.7033 22.7674 51.7033 21.6153C51.7033 20.4766 51.9565 19.4769 52.4629 18.6162C52.9695 17.7423 53.6625 17.0736 54.5421 16.6102C55.4218 16.1468 56.4081 15.915 57.5009 15.915C58.5938 15.915 59.5801 16.1468 60.4597 16.6102C61.3394 17.0736 62.0324 17.7423 62.5389 18.6162C63.0453 19.4769 63.2986 20.4766 63.2986 21.6153C63.2986 22.7541 63.0386 23.7604 62.5189 24.6344C62.0125 25.495 61.3128 26.1571 60.4197 26.6205C59.5401 27.084 58.5538 27.3157 57.461 27.3157ZM57.461 24.3761C58.114 24.3761 58.6671 24.1378 59.1203 23.6611C59.5868 23.1844 59.82 22.5025 59.82 21.6153C59.82 20.7282 59.5934 20.0463 59.1403 19.5696C58.7004 19.0929 58.154 18.8545 57.5009 18.8545C56.8345 18.8545 56.2814 19.0929 55.8416 19.5696C55.4017 20.033 55.1819 20.7149 55.1819 21.6153C55.1819 22.5025 55.3951 23.1844 55.8216 23.6611C56.2615 24.1378 56.8079 24.3761 57.461 24.3761Z" fill="#0D0E14"/><path d="M68.7508 15.915C69.5372 15.915 70.2236 16.0739 70.81 16.3917C71.4097 16.7095 71.8696 17.1266 72.1895 17.643V16.0739H75.608V27.1369C75.608 28.1565 75.4015 29.0768 74.9883 29.8976C74.5884 30.7319 73.9687 31.3939 73.1291 31.8838C72.3028 32.3738 71.2698 32.6188 70.0303 32.6188C68.3777 32.6188 67.0382 32.2282 66.0119 31.4469C64.9857 30.6789 64.3992 29.6328 64.2526 28.3087H67.6313C67.7379 28.7324 67.9912 29.0635 68.391 29.3019C68.7908 29.5534 69.284 29.6792 69.8704 29.6792C70.5768 29.6792 71.1365 29.4739 71.5497 29.0635C71.9762 28.6663 72.1895 28.0241 72.1895 27.1369V25.5679C71.8562 26.0842 71.3964 26.508 70.81 26.839C70.2236 27.1568 69.5372 27.3157 68.7508 27.3157C67.8312 27.3157 66.9982 27.084 66.2518 26.6205C65.5055 26.1438 64.9123 25.4751 64.4726 24.6144C64.0461 23.7406 63.8328 22.7343 63.8328 21.5955C63.8328 20.4567 64.0461 19.4571 64.4726 18.5964C64.9123 17.7357 65.5055 17.0736 66.2518 16.6102C66.9982 16.1468 67.8312 15.915 68.7508 15.915ZM72.1895 21.6153C72.1895 20.7679 71.9496 20.0992 71.4697 19.6093C71.0033 19.1194 70.4301 18.8744 69.7504 18.8744C69.0707 18.8744 68.4909 19.1194 68.0111 19.6093C67.5446 20.086 67.3114 20.7481 67.3114 21.5955C67.3114 22.4429 67.5446 23.1182 68.0111 23.6214C68.4909 24.1113 69.0707 24.3563 69.7504 24.3563C70.4301 24.3563 71.0033 24.1113 71.4697 23.6214C71.9496 23.1314 72.1895 22.4628 72.1895 21.6153Z" fill="#0D0E14"/><path d="M82.5595 27.3157C81.4666 27.3157 80.4803 27.084 79.6007 26.6205C78.7344 26.1571 78.0479 25.495 77.5415 24.6344C77.0484 23.7737 76.8018 22.7674 76.8018 21.6153C76.8018 20.4766 77.055 19.4769 77.5615 18.6162C78.068 17.7423 78.761 17.0736 79.6406 16.6102C80.5203 16.1468 81.5066 15.915 82.5995 15.915C83.6923 15.915 84.6786 16.1468 85.5582 16.6102C86.4379 17.0736 87.1309 17.7423 87.6374 18.6162C88.1438 19.4769 88.3971 20.4766 88.3971 21.6153C88.3971 22.7541 88.1373 23.7604 87.6174 24.6344C87.111 25.495 86.4113 26.1571 85.5182 26.6205C84.6386 27.084 83.6523 27.3157 82.5595 27.3157ZM82.5595 24.3761C83.2125 24.3761 83.7656 24.1378 84.2188 23.6611C84.6853 23.1844 84.9185 22.5025 84.9185 21.6153C84.9185 20.7282 84.6919 20.0463 84.2388 19.5696C83.7989 19.0929 83.2525 18.8545 82.5995 18.8545C81.9331 18.8545 81.3799 19.0929 80.9401 19.5696C80.5003 20.033 80.2804 20.7149 80.2804 21.6153C80.2804 22.5025 80.4937 23.1844 80.9201 23.6611C81.36 24.1378 81.9064 24.3761 82.5595 24.3761Z" fill="#0D0E14"/><path d="M91.3302 14.922C90.7304 14.922 90.2373 14.7498 89.8508 14.4056C89.4776 14.0481 89.291 13.6111 89.291 13.0947C89.291 12.5651 89.4776 12.1281 89.8508 11.7838C90.2373 11.4263 90.7304 11.2476 91.3302 11.2476C91.9166 11.2476 92.3964 11.4263 92.7696 11.7838C93.1561 12.1281 93.3493 12.5651 93.3493 13.0947C93.3493 13.6111 93.1561 14.0481 92.7696 14.4056C92.3964 14.7498 91.9166 14.922 91.3302 14.922ZM93.0294 16.074V27.1568H89.6109V16.074H93.0294Z" fill="#0D0E14"/><path d="M98.3255 17.643C98.6586 17.1266 99.1185 16.7095 99.7052 16.3917C100.292 16.0739 100.978 15.915 101.765 15.915C102.684 15.915 103.517 16.1468 104.263 16.6102C105.01 17.0736 105.597 17.7357 106.023 18.5964C106.462 19.4571 106.683 20.4567 106.683 21.5955C106.683 22.7343 106.462 23.7406 106.023 24.6144C105.597 25.4751 105.01 26.1438 104.263 26.6205C103.517 27.084 102.684 27.3157 101.765 27.3157C100.991 27.3157 100.305 27.1568 99.7052 26.839C99.1185 26.5212 98.6586 26.1107 98.3255 25.6076V32.44H94.9072V16.0739H98.3255V17.643ZM103.204 21.5955C103.204 20.7481 102.964 20.086 102.484 19.6093C102.017 19.1194 101.438 18.8744 100.745 18.8744C100.065 18.8744 99.4854 19.1194 99.0052 19.6093C98.5395 20.0992 98.3062 20.7679 98.3062 21.6153C98.3062 22.4628 98.5395 23.1314 99.0052 23.6214C99.4854 24.1113 100.065 24.3563 100.745 24.3563C101.425 24.3563 102.005 24.1113 102.484 23.6214C102.964 23.1182 103.204 22.4429 103.204 21.5955Z" fill="#0D0E14"/><path d="M112.415 27.3157C111.442 27.3157 110.575 27.1501 109.815 26.8192C109.056 26.4881 108.456 26.0379 108.016 25.4685C107.577 24.8859 107.33 24.2371 107.276 23.522H110.655C110.695 23.906 110.875 24.2172 111.195 24.4555C111.515 24.6939 111.908 24.8131 112.375 24.8131C112.801 24.8131 113.127 24.7336 113.354 24.5747C113.594 24.4026 113.714 24.1841 113.714 23.9193C113.714 23.6015 113.547 23.3698 113.214 23.2241C112.881 23.0652 112.341 22.8932 111.595 22.7077C110.795 22.5224 110.129 22.3304 109.595 22.1317C109.063 21.9199 108.603 21.5955 108.217 21.1585C107.829 20.7084 107.637 20.1058 107.637 19.3512C107.637 18.7155 107.81 18.1396 108.157 17.6231C108.516 17.0935 109.036 16.6764 109.715 16.3718C110.408 16.0673 111.229 15.915 112.174 15.915C113.573 15.915 114.673 16.2593 115.473 16.9478C116.286 17.6364 116.753 18.55 116.873 19.6888H113.714C113.661 19.3048 113.487 19.0003 113.194 18.7751C112.914 18.55 112.541 18.4375 112.075 18.4375C111.675 18.4375 111.368 18.5169 111.155 18.6758C110.942 18.8214 110.835 19.0267 110.835 19.2915C110.835 19.6093 111.002 19.8477 111.335 20.0066C111.682 20.1655 112.214 20.3244 112.934 20.4832C113.76 20.6951 114.433 20.907 114.953 21.1188C115.473 21.3174 115.926 21.6484 116.312 22.1119C116.712 22.5621 116.92 23.1711 116.933 23.9392C116.933 24.588 116.746 25.1706 116.372 25.687C116.013 26.1902 115.487 26.5874 114.793 26.8787C114.114 27.1701 113.321 27.3157 112.415 27.3157Z" fill="#0D0E14"/><path d="M129.44 16.074V27.1568H126.021V25.6473C125.675 26.1372 125.201 26.5345 124.602 26.839C124.015 27.1304 123.363 27.276 122.642 27.276C121.789 27.276 121.036 27.0906 120.384 26.7198C119.73 26.3359 119.224 25.7863 118.864 25.0714C118.504 24.3563 118.324 23.5155 118.324 22.5488V16.074H121.723V22.0921C121.723 22.8336 121.916 23.4095 122.303 23.8201C122.689 24.2305 123.209 24.4358 123.862 24.4358C124.528 24.4358 125.055 24.2305 125.441 23.8201C125.828 23.4095 126.021 22.8336 126.021 22.0921V16.074H129.44Z" fill="#0D0E14"/><path d="M145.53 15.9546C146.916 15.9546 148.015 16.3717 148.829 17.2059C149.655 18.04 150.068 19.1986 150.068 20.6816V27.1566H146.67V21.1385C146.67 20.4235 146.476 19.8739 146.09 19.49C145.716 19.0927 145.197 18.8941 144.53 18.8941C143.864 18.8941 143.337 19.0927 142.951 19.49C142.578 19.8739 142.391 20.4235 142.391 21.1385V27.1566H138.992V21.1385C138.992 20.4235 138.799 19.8739 138.413 19.49C138.039 19.0927 137.519 18.8941 136.853 18.8941C136.187 18.8941 135.66 19.0927 135.274 19.49C134.9 19.8739 134.715 20.4235 134.715 21.1385V27.1566H131.296V16.0738H134.715V17.4641C135.061 17.0006 135.514 16.6365 136.074 16.3717C136.633 16.0936 137.267 15.9546 137.972 15.9546C138.813 15.9546 139.559 16.1333 140.212 16.4908C140.878 16.8484 141.398 17.3582 141.772 18.0202C142.158 17.4111 142.685 16.9145 143.351 16.5306C144.017 16.1466 144.744 15.9546 145.53 15.9546Z" fill="#0D0E14"/></g><defs><clipPath id="clip0_8_184"><rect width="150.068" height="40" fill="white"/></clipPath></defs></svg>