<svg viewBox="0 0 151 40" fill="none" xmlns="http://www.w3.org/2000/svg"><path d="M50.9663 28.8054C50.2901 28.8424 49.6213 28.6491 49.0677 28.2569C48.8365 28.0845 48.6504 27.8581 48.5255 27.5973C48.4007 27.3364 48.341 27.049 48.3515 26.7597V16.1654C48.346 16.1206 48.3507 16.075 48.3654 16.0323C48.3799 15.9896 48.404 15.9508 48.4358 15.9188C48.4677 15.8868 48.5062 15.8626 48.5487 15.848C48.5913 15.8332 48.6366 15.8285 48.6812 15.834H50.5911C50.8071 15.834 50.9095 15.9483 50.9095 16.1654V25.9369C50.9095 26.3712 51.1027 26.5883 51.5006 26.5883C51.6693 26.5953 51.8381 26.5761 52.0009 26.5312C52.2282 26.5312 52.3533 26.5997 52.3647 26.8054L52.5352 28.234C52.5434 28.2757 52.5426 28.3186 52.5329 28.36C52.5233 28.4012 52.5048 28.4401 52.4789 28.4736C52.4531 28.5072 52.4204 28.5348 52.3831 28.5546C52.3457 28.5744 52.3045 28.5859 52.2623 28.5883C51.844 28.7273 51.4068 28.8005 50.9663 28.8054Z" fill="#0D0E14"/><path d="M61.7098 27.5826C60.7502 28.3797 59.5441 28.8157 58.2992 28.8157C57.0543 28.8157 55.8483 28.3797 54.8885 27.5826C54.0451 26.7266 53.5718 25.5703 53.5718 24.3654C53.5718 23.1605 54.0451 22.0043 54.8885 21.1483C55.8501 20.3552 57.0554 19.9219 58.2992 19.9219C59.5429 19.9219 60.7482 20.3552 61.7098 21.1483C62.5339 22.0122 62.994 23.1628 62.994 24.3597C62.994 25.5566 62.5339 26.7072 61.7098 27.5711V27.5826ZM56.6848 26.074C57.1302 26.4796 57.7096 26.7042 58.3105 26.7042C58.9115 26.7042 59.491 26.4796 59.9363 26.074C60.3394 25.6082 60.5613 25.0115 60.5613 24.394C60.5613 23.7766 60.3394 23.1799 59.9363 22.714C59.491 22.3085 58.9115 22.0838 58.3105 22.0838C57.7096 22.0838 57.1302 22.3085 56.6848 22.714C56.2818 23.1799 56.0598 23.7766 56.0598 24.394C56.0598 25.0115 56.2818 25.6082 56.6848 26.074Z" fill="#0D0E14"/><path d="M73.5106 20.2111C73.7266 20.2111 73.8289 20.3254 73.8289 20.5426V28.7368C73.8488 29.29 73.7458 29.8405 73.5275 30.3485C73.3092 30.8566 72.9811 31.3094 72.567 31.674C71.6477 32.462 70.4656 32.8703 69.2587 32.8168C68.1686 32.8554 67.093 32.5562 66.1777 31.9597C65.7869 31.7018 65.453 31.3656 65.1968 30.9725C64.9406 30.5792 64.7675 30.1373 64.6884 29.674C64.6884 29.4454 64.6884 29.3426 64.9954 29.3426H66.9053C66.9864 29.3453 67.0651 29.3717 67.1316 29.4183C67.1982 29.465 67.2499 29.5299 67.2805 29.6054C67.4044 29.9525 67.6513 30.2415 67.974 30.4168C68.3672 30.6208 68.8049 30.723 69.2473 30.714C69.5142 30.7287 69.7814 30.6898 70.0332 30.5995C70.285 30.5093 70.5164 30.3694 70.7139 30.1883C70.8943 29.9988 71.0346 29.7744 71.1264 29.529C71.2183 29.2835 71.2597 29.0218 71.2482 28.7597V28.0397C70.5644 28.5453 69.7321 28.8068 68.8835 28.7826C68.2896 28.8043 67.6975 28.7052 67.1426 28.4911C66.5878 28.277 66.0818 27.9525 65.6548 27.5368C64.8352 26.6845 64.377 25.5453 64.377 24.3597C64.377 23.1742 64.8352 22.035 65.6548 21.1826C66.0838 20.7707 66.5905 20.4493 67.145 20.2373C67.6995 20.0253 68.2906 19.927 68.8835 19.9483C69.7566 19.9251 70.6113 20.2035 71.305 20.7368V20.554C71.2998 20.5102 71.3044 20.4658 71.3183 20.4239C71.3323 20.3822 71.3554 20.344 71.3859 20.3123C71.4163 20.2805 71.4535 20.256 71.4946 20.2405C71.5357 20.225 71.5797 20.2189 71.6234 20.2226L73.5106 20.2111ZM69.0995 26.7483C69.3924 26.7574 69.6837 26.7018 69.9528 26.5852C70.2219 26.4687 70.4624 26.2942 70.657 26.074C71.035 25.5834 71.2401 24.9803 71.2401 24.3597C71.2401 23.7391 71.035 23.1362 70.657 22.6454C70.4631 22.4283 70.2241 22.2563 69.957 22.1418C69.6899 22.0272 69.4011 21.973 69.1109 21.9826C68.8146 21.9732 68.5199 22.0286 68.2471 22.1451C67.9742 22.2615 67.7298 22.4362 67.5306 22.6568C67.1119 23.1262 66.8917 23.7412 66.9167 24.3711C66.8962 24.9949 67.1116 25.6034 67.5192 26.074C67.7189 26.2941 67.9634 26.4684 68.2362 26.5847C68.5089 26.7011 68.8033 26.7568 69.0995 26.7483Z" fill="#0D0E14"/><path d="M83.6401 27.5824C82.6786 28.3754 81.4733 28.8088 80.2295 28.8088C78.9858 28.8088 77.7804 28.3754 76.8189 27.5824C75.9941 26.7166 75.5336 25.5641 75.5336 24.3653C75.5336 23.1665 75.9941 22.014 76.8189 21.1481C77.7814 20.3572 78.9863 19.925 80.2295 19.925C81.4727 19.925 82.6777 20.3572 83.6401 21.1481C84.4643 22.012 84.9244 23.1626 84.9244 24.3596C84.9244 25.5565 84.4643 26.7071 83.6401 27.571V27.5824ZM78.6038 26.0738C78.8217 26.2823 79.0786 26.4452 79.3597 26.553C79.6407 26.6609 79.9402 26.7118 80.2409 26.7024C80.5397 26.7102 80.8371 26.6588 81.116 26.5509C81.395 26.443 81.65 26.2809 81.8666 26.0738C82.2632 25.6048 82.4809 25.0094 82.4809 24.3938C82.4809 23.7783 82.2632 23.1829 81.8666 22.7138C81.65 22.5069 81.395 22.3447 81.116 22.2369C80.8371 22.129 80.5397 22.0775 80.2409 22.0853C79.9402 22.076 79.6407 22.1268 79.3597 22.2346C79.0786 22.3425 78.8217 22.5055 78.6038 22.7138C78.2073 23.1829 77.9896 23.7783 77.9896 24.3938C77.9896 25.0094 78.2073 25.6048 78.6038 26.0738Z" fill="#0D0E14"/><path d="M89.029 18.2682C88.7285 18.5326 88.3427 18.6783 87.9433 18.6783C87.5439 18.6783 87.1582 18.5326 86.8576 18.2682C86.7214 18.1389 86.6128 17.983 86.5386 17.8101C86.4644 17.6372 86.4261 17.4508 86.4261 17.2625C86.4261 17.0741 86.4644 16.8878 86.5386 16.7148C86.6128 16.5419 86.7214 16.386 86.8576 16.2567C87.1612 15.9989 87.5458 15.8575 87.9433 15.8575C88.3407 15.8575 88.7253 15.9989 89.029 16.2567C89.1653 16.386 89.2739 16.5419 89.348 16.7148C89.4222 16.8878 89.4604 17.0741 89.4604 17.2625C89.4604 17.4508 89.4222 17.6372 89.348 17.8101C89.2739 17.983 89.1653 18.1389 89.029 18.2682ZM89.2677 28.8053C88.592 28.8387 87.9243 28.6458 87.3692 28.2567C87.1414 28.0819 86.9585 27.8547 86.836 27.5942C86.7133 27.3338 86.6544 27.0476 86.6643 26.7596V20.5425C86.6588 20.4977 86.6635 20.4521 86.6782 20.4093C86.6927 20.3666 86.7168 20.3278 86.7486 20.2958C86.7805 20.2638 86.819 20.2396 86.8615 20.225C86.9041 20.2102 86.9494 20.2055 86.994 20.211H88.9039C89.1199 20.211 89.2223 20.3253 89.2223 20.5425V25.9367C89.2223 26.371 89.4155 26.5882 89.8021 26.5882C89.9745 26.5945 90.1469 26.5751 90.3137 26.531C90.5411 26.531 90.6661 26.5996 90.6775 26.8053L90.848 28.2339C90.8562 28.2756 90.8554 28.3185 90.8457 28.3598C90.8361 28.4011 90.8176 28.4399 90.7917 28.4734C90.7659 28.507 90.7332 28.5347 90.6959 28.5545C90.6585 28.5742 90.6173 28.5858 90.5752 28.5882C90.1531 28.7279 89.7121 28.8012 89.2677 28.8053Z" fill="#0D0E14"/><path d="M97.8739 19.9368C98.4705 19.9132 99.0657 20.0102 99.6242 20.2222C100.183 20.4343 100.693 20.7569 101.125 21.1711C101.929 22.0385 102.376 23.1799 102.376 24.3654C102.376 25.5509 101.929 26.6924 101.125 27.5597C100.695 27.9776 100.185 28.3035 99.6266 28.5175C99.0677 28.7317 98.4715 28.8296 97.8739 28.8054C97.0226 28.8245 96.1882 28.5637 95.4978 28.0625V32.1883C95.4978 32.4054 95.3841 32.5083 95.1681 32.5083H93.2581C93.2146 32.5165 93.1697 32.5139 93.1273 32.5007C93.085 32.4875 93.0464 32.4641 93.0151 32.4326C92.9838 32.4011 92.9605 32.3624 92.9474 32.3198C92.9342 32.2773 92.9317 32.2321 92.9398 32.1883V22.8168C92.9532 22.7252 92.945 22.6317 92.9162 22.5437C92.8872 22.4558 92.8381 22.3758 92.7729 22.3103C92.7078 22.2448 92.6283 22.1956 92.5408 22.1664C92.4533 22.1373 92.3602 22.1292 92.2691 22.1425H91.8939C91.6438 22.1425 91.5187 22.0511 91.5187 21.8683V20.5197C91.5128 20.4363 91.5355 20.3533 91.5832 20.2847C91.6307 20.216 91.7003 20.1659 91.7802 20.1425C92.1734 19.9989 92.5896 19.9292 93.008 19.9368C93.4253 19.8997 93.844 19.9887 94.2106 20.1923C94.5771 20.3959 94.875 20.7049 95.0658 21.0797C95.432 20.7073 95.8699 20.414 96.3527 20.2174C96.8356 20.0209 97.3532 19.9254 97.8739 19.9368ZM96.1003 26.074C96.303 26.287 96.5466 26.4565 96.8162 26.5723C97.0859 26.688 97.376 26.7477 97.6692 26.7477C97.9624 26.7477 98.2527 26.688 98.5222 26.5723C98.7919 26.4565 99.0354 26.287 99.2381 26.074C99.6651 25.5952 99.8894 24.9679 99.8634 24.3254C99.8932 23.6824 99.6683 23.0536 99.2381 22.5768C99.0354 22.3639 98.7919 22.1944 98.5222 22.0787C98.2527 21.9628 97.9624 21.9031 97.6692 21.9031C97.376 21.9031 97.0859 21.9628 96.8162 22.0787C96.5466 22.1944 96.303 22.3639 96.1003 22.5768C95.6867 23.0621 95.4714 23.6869 95.4978 24.3254C95.4747 24.9635 95.6897 25.5871 96.1003 26.074Z" fill="#0D0E14"/><path d="M107.742 28.8054C106.721 28.8476 105.71 28.6022 104.82 28.0969C104.464 27.8809 104.16 27.5868 103.931 27.2366C103.703 26.8865 103.556 26.4891 103.501 26.074C103.501 25.8454 103.581 25.7312 103.831 25.7312H105.502C105.582 25.7344 105.659 25.7594 105.725 25.8038C105.791 25.8482 105.844 25.91 105.878 25.9826C106.116 26.5997 106.742 26.9083 107.742 26.9083C108.091 26.9244 108.439 26.8537 108.754 26.7026C108.863 26.6532 108.956 26.575 109.024 26.4764C109.092 26.3778 109.132 26.2624 109.14 26.1426C109.14 25.8454 108.959 25.6397 108.595 25.5026C108.163 25.3582 107.717 25.2624 107.265 25.2169C106.729 25.1558 106.197 25.0604 105.673 24.9312C105.163 24.8153 104.7 24.5485 104.343 24.1654C104.132 23.9051 103.978 23.604 103.888 23.2809C103.798 22.9578 103.775 22.6195 103.821 22.2873C103.867 21.9549 103.98 21.6356 104.154 21.3493C104.328 21.0629 104.559 20.8156 104.832 20.6226C105.651 20.0979 106.613 19.8422 107.583 19.8912C108.522 19.8593 109.452 20.0929 110.266 20.5654C110.594 20.7523 110.876 21.0103 111.093 21.3207C111.309 21.6311 111.454 21.986 111.516 22.3597C111.516 22.5883 111.414 22.7026 111.21 22.7026H109.527C109.456 22.7068 109.386 22.6894 109.325 22.6528C109.264 22.6161 109.216 22.5617 109.186 22.4969C109.073 22.2262 108.862 22.0093 108.595 21.8912C108.293 21.7328 107.957 21.654 107.617 21.6626C107.284 21.6444 106.951 21.7113 106.651 21.8569C106.545 21.898 106.454 21.97 106.389 22.0637C106.324 22.1574 106.288 22.2685 106.287 22.3826C106.294 22.5389 106.351 22.6888 106.449 22.8101C106.548 22.9315 106.682 23.0179 106.833 23.0569C107.269 23.2224 107.723 23.3373 108.185 23.3997C108.717 23.4701 109.245 23.5693 109.766 23.6969C110.275 23.8129 110.739 24.0795 111.096 24.4626C111.287 24.6737 111.435 24.9206 111.53 25.1894C111.626 25.4581 111.668 25.7433 111.653 26.0283C111.663 26.4234 111.571 26.8142 111.385 27.1628C111.2 27.5113 110.928 27.8056 110.596 28.0169C109.746 28.5651 108.751 28.8401 107.742 28.8054Z" fill="#0D0E14"/><path d="M123.67 28.2339C123.676 28.2745 123.674 28.316 123.665 28.3559C123.655 28.3959 123.638 28.4333 123.613 28.4664C123.589 28.4994 123.558 28.5272 123.523 28.5481C123.488 28.569 123.449 28.5826 123.408 28.5882C122.993 28.7244 122.56 28.7977 122.124 28.8053C121.691 28.8504 121.255 28.7825 120.857 28.6083C120.458 28.4341 120.111 28.1595 119.85 27.8111C119.047 28.5051 118.008 28.8612 116.951 28.8053C116.46 28.8281 115.97 28.7473 115.511 28.5682C115.053 28.3891 114.637 28.1156 114.29 27.7653C113.946 27.3984 113.679 26.9652 113.505 26.492C113.331 26.0187 113.254 25.5151 113.279 25.0111V20.5425C113.279 20.3253 113.381 20.2111 113.597 20.2111H115.507C115.723 20.2111 115.825 20.3253 115.825 20.5425V24.6682C115.805 25.1823 115.979 25.6849 116.314 26.0739C116.481 26.2522 116.685 26.3923 116.91 26.485C117.135 26.5777 117.378 26.6207 117.621 26.6111C117.87 26.622 118.119 26.5833 118.354 26.4969C118.588 26.4106 118.803 26.2785 118.986 26.1082C119.159 25.9288 119.294 25.7155 119.381 25.4816C119.47 25.2476 119.509 24.998 119.497 24.7482V20.5425C119.497 20.3253 119.6 20.2111 119.816 20.2111H121.748C121.964 20.2111 122.067 20.3253 122.067 20.5425V25.9253C122.067 26.3711 122.26 26.5882 122.635 26.5882C122.811 26.5951 122.988 26.5759 123.158 26.5311C123.201 26.5189 123.247 26.5168 123.29 26.5248C123.334 26.5327 123.375 26.5505 123.412 26.5769C123.448 26.6033 123.478 26.6376 123.499 26.6771C123.52 26.7167 123.531 26.7605 123.533 26.8053L123.67 28.2339Z" fill="#0D0E14"/><path d="M141.735 28.2339C141.745 28.2748 141.746 28.3176 141.738 28.3589C141.729 28.4002 141.712 28.4393 141.687 28.4731C141.662 28.5069 141.63 28.5348 141.593 28.5547C141.556 28.5747 141.515 28.5861 141.473 28.5882C141.05 28.7263 140.61 28.7996 140.166 28.8053C139.489 28.8404 138.822 28.6474 138.267 28.2568C138.027 28.0894 137.833 27.8653 137.7 27.6042C137.567 27.343 137.5 27.0529 137.505 26.7596V24.0739C137.529 23.5614 137.359 23.0589 137.028 22.6682C136.869 22.4895 136.671 22.3487 136.452 22.2558C136.231 22.163 135.993 22.1204 135.755 22.131C135.54 22.1229 135.326 22.1639 135.128 22.251C134.932 22.3381 134.758 22.4691 134.618 22.6339C134.318 23.0169 134.164 23.4955 134.186 23.9825V28.1996C134.186 28.4167 134.083 28.531 133.867 28.531H131.946C131.902 28.5366 131.856 28.5318 131.814 28.5172C131.771 28.5025 131.732 28.4782 131.701 28.4462C131.669 28.4143 131.645 28.3755 131.63 28.3328C131.615 28.29 131.611 28.2445 131.616 28.1996V24.0739C131.641 23.567 131.483 23.0681 131.173 22.6682C131.034 22.5002 130.86 22.365 130.664 22.2722C130.468 22.1794 130.253 22.1312 130.036 22.131C129.804 22.1217 129.573 22.1616 129.357 22.2483C129.141 22.3349 128.947 22.4664 128.786 22.6339C128.46 23.0046 128.293 23.489 128.319 23.9825V28.1996C128.325 28.2445 128.321 28.29 128.306 28.3328C128.291 28.3755 128.267 28.4143 128.235 28.4462C128.203 28.4782 128.165 28.5025 128.123 28.5172C128.08 28.5318 128.034 28.5366 127.99 28.531H126.137C125.921 28.531 125.818 28.4167 125.818 28.1996V22.8168C125.832 22.7251 125.824 22.6316 125.794 22.5436C125.766 22.4557 125.717 22.3757 125.651 22.3102C125.586 22.2447 125.507 22.1955 125.419 22.1663C125.332 22.1372 125.239 22.1291 125.148 22.1425H124.772C124.522 22.1425 124.397 22.051 124.397 21.8682V20.5196C124.392 20.4362 124.414 20.3532 124.462 20.2846C124.51 20.2159 124.579 20.1658 124.659 20.1425C125.052 19.9988 125.468 19.9291 125.887 19.9367C126.288 19.9023 126.691 19.9828 127.05 20.1689C127.408 20.3549 127.706 20.6389 127.91 20.9882C128.293 20.6228 128.748 20.3407 129.245 20.1598C129.742 19.9789 130.27 19.903 130.798 19.9367C131.311 19.9116 131.821 20.0082 132.289 20.2187C132.758 20.4292 133.169 20.7476 133.492 21.1482C133.869 20.7371 134.331 20.4153 134.846 20.2057C135.361 19.9962 135.916 19.9044 136.471 19.9367C136.967 19.9134 137.462 19.9938 137.926 20.1729C138.39 20.3518 138.812 20.6255 139.165 20.9767C139.511 21.343 139.778 21.7761 139.952 22.2495C140.126 22.7229 140.203 23.227 140.177 23.731V25.9368C140.177 26.371 140.37 26.5882 140.734 26.5882C140.91 26.5964 141.087 26.5772 141.257 26.531C141.492 26.531 141.618 26.6225 141.632 26.8053L141.735 28.2339Z" fill="#0D0E14"/><path d="M8.42428 18.7254C9.26304 15.3365 11.2056 12.327 13.9426 10.1763C16.6796 8.02557 20.0538 6.85718 23.5277 6.85718C27.0017 6.85718 30.3758 8.02557 33.1129 10.1763C35.8499 12.327 37.7924 15.3365 38.6312 18.7254H37.2669C34.9655 18.6913 32.7113 19.3828 30.8208 20.7025C30.7117 20.782 30.5977 20.8545 30.4797 20.9197H30.3206C30.2026 20.8545 30.0886 20.782 29.9795 20.7025C28.0723 19.4133 25.826 18.7247 23.5277 18.7247C21.2294 18.7247 18.9832 19.4133 17.0759 20.7025C16.9668 20.782 16.8529 20.8545 16.7349 20.9197H16.5757C16.4577 20.8545 16.3438 20.782 16.2346 20.7025C14.3441 19.3828 12.0899 18.6913 9.78854 18.7254H8.42428ZM34.8112 25.8911C35.5116 25.3429 36.3796 25.056 37.2669 25.0797H39.0973V21.4111H37.2669C35.7039 21.3921 34.1768 21.8812 32.9127 22.8054C32.2013 23.3326 31.3408 23.6171 30.457 23.6171C29.5732 23.6171 28.7127 23.3326 28.0013 22.8054C26.7052 21.8984 25.1638 21.4121 23.5846 21.4121C22.0053 21.4121 20.4639 21.8984 19.1678 22.8054C18.4564 23.3326 17.5959 23.6171 16.7121 23.6171C15.8283 23.6171 14.9678 23.3326 14.2565 22.8054C12.9768 21.8693 11.4277 21.3797 9.84538 21.4111H7.95816V25.0797H9.78854C10.6759 25.056 11.5439 25.3429 12.2442 25.8911C13.538 26.7988 15.0776 27.2854 16.6553 27.2854C18.2329 27.2854 19.7726 26.7988 21.0664 25.8911C21.7676 25.3446 22.6349 25.058 23.522 25.0797C24.4097 25.0541 25.2783 25.3412 25.9777 25.8911C27.2738 26.7982 28.8152 27.2844 30.3945 27.2844C31.9737 27.2844 33.5151 26.7982 34.8112 25.8911ZM34.8112 32.4511C35.5116 31.9029 36.3796 31.616 37.2669 31.6397H39.0973V27.9711H37.2669C35.7039 27.9521 34.1768 28.4412 32.9127 29.3654C32.2013 29.8926 31.3408 30.1771 30.457 30.1771C29.5732 30.1771 28.7127 29.8926 28.0013 29.3654C26.7052 28.4584 25.1638 27.9723 23.5846 27.9723C22.0053 27.9723 20.4639 28.4584 19.1678 29.3654C18.4564 29.8926 17.5959 30.1771 16.7121 30.1771C15.8283 30.1771 14.9678 29.8926 14.2565 29.3654C12.9768 28.4294 11.4277 27.9397 9.84538 27.9711H7.95816V31.6397H9.78854C10.6759 31.616 11.5439 31.9029 12.2442 32.4511C13.538 33.3588 15.0776 33.8454 16.6553 33.8454C18.2329 33.8454 19.7726 33.3588 21.0664 32.4511C21.7676 31.9046 22.6349 31.618 23.522 31.6397C24.4097 31.6141 25.2783 31.9012 25.9777 32.4511C27.2738 33.3582 28.8152 33.8444 30.3945 33.8444C31.9737 33.8444 33.5151 33.3582 34.8112 32.4511Z" fill="#4B5567"/></svg>